<?xml version="1.0" encoding="utf-8"?>
<!-- Generator: Adobe Illustrator 27.8.1, SVG Export Plug-In . SVG Version: 6.00 Build 0)  -->
<svg version="1.1" xmlns="http://www.w3.org/2000/svg" xmlns:xlink="http://www.w3.org/1999/xlink" x="0px" y="0px"
	 viewBox="0 0 500 441" style="enable-background:new 0 0 500 441;" xml:space="preserve">
<style type="text/css">
	.st0{opacity:0.1;fill:#FFFFFF;}
	.st1{fill:#DFEAF7;}
	.st2{fill:#002D53;}
	.st3{fill:#FFB3AE;}
	.st4{fill:#FF7A72;}
	.st5{fill:#FFB042;}
	.st6{fill:#3D71F2;}
	.st7{fill:#D18C7E;}
	.st8{fill:#40C1B0;}
	.st9{fill:#FF828A;}
	.st10{fill:#FFFFFF;}
	.st11{fill:#BC7F72;}
	.st12{fill:#F1F3F6;}
	.st13{fill:#004072;}
	.st14{fill:#004070;}
	.st15{fill:#FFB0B3;}
	.st16{fill:#6190E5;}
</style>
<g id="BACKGROUND">
	<rect x="773" y="-158" class="st0" width="500" height="500"/>
</g>
<g id="OBJECTS">
	<g>
		<g>
			<path class="st1" d="M487.61,289.75c1.05,39.24-38.19,77.15-81.89,102.85c-15.3,9.03-31.09,16.51-45.95,22.07
				c-47.82,17.89-88.05,16.51-117.77,15.57c-0.44-0.06-0.83-0.06-1.27-0.06c-0.94-0.06-1.93-0.06-2.86-0.11
				c-49.2-2.04-99-12.66-142.81-35.61c-1.16-0.61-2.31-1.21-3.47-1.87c-37.75-20.2-75.45-49.03-78.97-94.98
				C10.87,275,18.03,252,31.62,233.89c14.69-19.54,36.16-30.49,55.53-44.63c13.65-9.96,19.7-24.38,26.09-39.35
				c4.46-10.4,9.3-20.69,14.86-30.6c3.08-5.39,6.27-10.62,9.8-15.74c24.6-35.83,65.32-62.08,108.47-68.24
				c44.96-6.38,87.89,14.58,117.33,48.32c17.78,20.31,29.99,45.4,35.28,71.87c4.35,21.63-0.11,48.7,16.73,65.65
				c19.54,19.65,47.6,13.81,63.51,38.3C487.12,271.64,487.45,284.36,487.61,289.75z"/>
		</g>
		<g>
			<g>
				<path class="st2" d="M329.29,211.27c39.94-34.22,51.81-96.7,24.49-136.9c-15.75-23.18-40.02-32.33-51.94-35.85
					c-4.96-7.22-17.52-23.26-38.8-29.11c-37.1-10.19-69.3,19.27-73.85,23.43c-42.63,39-58.68,134.27-0.47,180.8
					C226.54,243.87,288.17,246.5,329.29,211.27z"/>
			</g>
			<g>
				<g>
					<rect x="232.32" y="154.48" class="st3" width="45.79" height="56.46"/>
				</g>
				<g>
					<path class="st4" d="M278.11,154.48v27.19c-24.16,1.76-37.97-1.38-45.79-6.16v-21.02H278.11z"/>
				</g>
				<g>
					<path class="st3" d="M323.33,120.57c-4.37,11.62-14.99,18.39-23.72,15.11c-8.73-3.28-12.28-15.36-7.91-26.99
						c4.37-11.62,14.99-18.39,23.72-15.11C324.15,96.87,327.7,108.95,323.33,120.57z"/>
				</g>
				<g>
					<path class="st3" d="M194.45,120.57c4.37,11.62,14.99,18.39,23.72,15.11c8.73-3.28,12.28-15.36,7.91-26.99
						c-4.37-11.62-14.99-18.39-23.72-15.11C193.62,96.87,190.08,108.95,194.45,120.57z"/>
				</g>
				<g>
					<path class="st3" d="M301.49,109.8c7.36,20.26-15.88,60.7-45.61,60.7c-25.19,0-45.61-27.18-45.61-60.7
						c0-36.52,36.65-65.15,45.61-60.7c3.61,1.79,0.64,7.86,3.89,18.28C267.51,92.24,295.21,92.54,301.49,109.8z"/>
				</g>
			</g>
			<g>
				<path class="st5" d="M383.74,369.66H122.48v-50.89c0-72.15,58.49-130.63,130.63-130.63l0,0c72.15,0,130.63,58.49,130.63,130.63
					V369.66z"/>
			</g>
		</g>
		<g>
			<g>
				<g>
					<rect x="350.73" y="288.45" class="st6" width="71.94" height="81.9"/>
				</g>
				<g>
					<path class="st6" d="M445.57,329.68c0,7.13-5.82,12.91-12.95,12.91c-4.02,0-7.61-1.83-9.96-4.7v17.37
						c3.07,1.24,6.45,1.87,9.96,1.87c15.18,0,27.49-12.27,27.49-27.45c0-15.18-12.31-27.49-27.49-27.49c-3.51,0-6.89,0.64-9.96,1.87
						v17.37c2.35-2.87,5.94-4.7,9.96-4.7C439.76,316.74,445.57,322.51,445.57,329.68z"/>
				</g>
			</g>
			<g>
				<rect x="36.62" y="370.36" class="st7" width="438.51" height="22.25"/>
			</g>
			<g>
				<g>
					<path class="st8" d="M111.88,319.9c-1.51-38.85-0.96-87.85,11.92-90.62c0.44-0.1,1.98-0.4,3.53,0.39
						C137.75,235.04,125.72,278.79,111.88,319.9z"/>
				</g>
				<g>
					<path class="st8" d="M111.88,319.9c-19-33.31-28.16-39.36-32.93-37.88c-1.8,0.56-3.09,2.23-3.57,3.79
						C72.09,296.56,103.45,315.07,111.88,319.9z"/>
				</g>
				<g>
					<path class="st8" d="M111.88,319.9c0,0,17.73-51.02,29.98-47.99C154.12,274.94,111.88,319.9,111.88,319.9z"/>
				</g>
				<g>
					<polygon class="st9" points="84.07,369.66 132.58,369.66 136.87,310.27 79.77,310.27 					"/>
				</g>
			</g>
			<g>
				<g>
					<path class="st10" d="M352.86,359.35c0,6.05-4.95,11.01-11.01,11.01H164.37c-6.05,0-11.01-4.95-11.01-11.01V248.6
						c0-6.05,4.95-11.01,11.01-11.01h177.48c6.05,0,11.01,4.95,11.01,11.01V359.35z"/>
				</g>
				<g>
					<circle class="st1" cx="253.11" cy="308.09" r="15.4"/>
				</g>
			</g>
			<g>
				<path class="st11" d="M405.72,392.6c-15.3,9.03-31.09,16.51-45.95,22.07c-47.82,17.89-88.05,16.51-117.77,15.57
					c-0.44-0.06-0.83-0.06-1.27-0.06c-0.94-0.06-1.93-0.06-2.86-0.11c-49.2-2.04-99-12.66-142.81-35.61
					c-1.16-0.61-2.31-1.21-3.47-1.87H405.72z"/>
			</g>
		</g>
	</g>
	<g>
		<g>
			<g>
				<path class="st1" d="M1077.42,110.3c-8.6,14.84-18.96,29.28-31.21,43.06l-0.04,0.04c-0.13,0.13-0.26,0.31-0.4,0.44
					c-24.32,27.3-59.66,42.19-96.22,41.7l-140.78-1.84c0,0-45.04-13.13-89.99-40.3c-0.04,0-0.04-0.04-0.09-0.04
					c-24.06-14.57-48.11-33.27-65.1-56.01c-14.49-19.36-23.84-41.79-23.75-67.25c0,0-7.29-90.3,145.74-95.39
					c69.93-8.16,58.03-91.22,207.94-88.19c5.14,0.09,10.14,0.44,14.93,1.05c8.17,1.01,15.94,2.77,23.27,5.09
					c38.98,12.64,66.24,43.41,79.41,82.79c2.5,7.46,4.52,15.23,6.01,23.27C1115.66,5.16,1106.74,59.9,1077.42,110.3z"/>
			</g>
			<g>
				<g>
					<path class="st12" d="M1107.12-41.29H998.46v-111.14c8.17,1.03,15.91,2.79,23.24,5.11c39.01,12.63,66.26,43.39,79.42,82.78
						C1103.65-57.09,1105.63-49.31,1107.12-41.29z"/>
				</g>
				<g>
					<path class="st1" d="M1101.13-64.54h-79.42v-82.78C1060.71-134.68,1087.96-103.92,1101.13-64.54z"/>
				</g>
			</g>
		</g>
		<g>
			<g>
				<path class="st2" d="M1054.58,97.36h-64.73c0.09-14.33,0.18-28.65,0.27-42.98c-1.33-0.75-2.45-1.61-3.4-2.55
					c-12.74-12.61,0.7-43.55,2.27-47.07c2.83,4.15,5.66,8.3,8.48,12.46h17.57c2.33-4.16,4.66-8.33,6.98-12.49
					c1.87,3.96,3.67,8.43,5.21,13.38c4.46,14.28,5.1,27.17,4.64,36.8C1037.54,55.12,1041.33,56.88,1054.58,97.36z"/>
			</g>
			<g>
				<path class="st10" d="M994.88,35.11c0,1.88-0.26,3.41-0.59,3.41c-0.32,0-0.59-1.53-0.59-3.41c0-1.88,0.26-3.41,0.59-3.41
					C994.62,31.7,994.88,33.23,994.88,35.11z"/>
			</g>
			<g>
				<path class="st10" d="M1012.16,35.11c0,1.88-0.26,3.41-0.59,3.41s-0.59-1.53-0.59-3.41c0-1.88,0.26-3.41,0.59-3.41
					S1012.16,33.23,1012.16,35.11z"/>
			</g>
		</g>
		<g>
			<g>
				<g>
					<polygon class="st2" points="814.32,97.36 774.59,97.36 790.21,34.5 829.94,34.5 					"/>
				</g>
				<g>
					<g>
						<path class="st10" d="M909.37,61.88c0.44,4.17-2.63,7.59-6.83,7.59H697.52c-4.2,0-8-3.42-8.44-7.59L675.49-65.88
							c-0.44-4.17,2.63-7.59,6.83-7.59h205.03c4.2,0,8,3.42,8.44,7.59L909.37,61.88z"/>
					</g>
					<g>
						<path class="st2" d="M909.37,61.88c0.44,4.17-2.63,7.59-6.83,7.59H697.52c-4.2,0-8-3.42-8.44-7.59L675.49-65.88
							c-0.44-4.17,2.63-7.59,6.83-7.59h205.03c4.2,0,8,3.42,8.44,7.59L909.37,61.88z"/>
					</g>
				</g>
				<g>
					<g>
						<path class="st13" d="M706.09,59.94c-4.2,0-8-3.42-8.44-7.59l-11.56-108.7c-0.44-4.17,2.63-7.59,6.83-7.59h185.86
							c4.2,0,8,3.42,8.44,7.59l11.56,108.7c0.44,4.17-2.63,7.59-6.83,7.59H706.09z"/>
					</g>
				</g>
				<g>
					<g>
						<polygon class="st9" points="752.37,-29.94 708.08,-29.94 707,-36.85 751.29,-36.85 						"/>
					</g>
					<g>
						<polygon class="st10" points="808.29,-29.94 764,-29.94 762.92,-36.85 807.21,-36.85 						"/>
					</g>
					<g>
						<polygon class="st10" points="755.67,-9.92 711.38,-9.92 710.3,-16.83 754.59,-16.83 						"/>
					</g>
					<g>
						<polygon class="st10" points="788.9,7.14 744.61,7.14 743.53,0.23 787.82,0.23 						"/>
					</g>
					<g>
						<polygon class="st10" points="815.22,26.6 770.93,26.6 769.85,19.69 814.14,19.69 						"/>
					</g>
					<g>
						<polygon class="st9" points="842.17,26.6 820.03,26.6 818.95,19.69 841.09,19.69 						"/>
					</g>
					<g>
						<polygon class="st9" points="837.91,7.14 793.62,7.14 792.54,0.23 836.83,0.23 						"/>
					</g>
				</g>
			</g>
			<g>
				<g>
					<path class="st11" d="M1046.21,153.36l-0.04,0.04c-0.13,0.13-0.26,0.31-0.4,0.44c-24.32,27.3-59.66,42.19-96.22,41.7
						l-140.78-1.84c0,0-45.04-13.13-89.99-40.3c-0.04,0-0.04-0.04-0.09-0.04H1046.21z"/>
				</g>
				<g>
					<path class="st7" d="M1077.43,110.3c-8.61,14.84-19,29.33-31.27,43.09H718.79c-24.12-14.59-48.21-33.24-65.21-56.02h414.59
						L1077.43,110.3z"/>
				</g>
			</g>
		</g>
		<g>
			<g>
				<g>
					<path class="st3" d="M939.56,7.11c-9.55,28.77-33.79,46.61-54.14,39.86c-20.35-6.76-29.1-35.56-19.54-64.33
						c9.55-28.77,33.79-46.62,54.14-39.86S949.12-21.66,939.56,7.11z"/>
				</g>
				<g>
					<rect x="900.36" y="13.98" class="st3" width="41.15" height="49.08"/>
				</g>
				<g>
					<path class="st2" d="M862.79-4.44c0,0-33.97-19.34-6.98-52.94c6.98-10.19,6.98,10.57,6.98,10.57s23.18-67.2,62.47-24.35
						c0,0,37.13,6.29,45.39,31.34c2.67,8.1,1.21,15.02-0.24,22.46c-0.51,2.61-9.97,47.72-41.73,53.28
						c-4.44,0.78-14.81,1.74-28.32-5.38C887.83,18.88,875.31,7.22,862.79-4.44z"/>
				</g>
				<g>
					<path class="st3" d="M896.34,12.45c0.81,8.98-1.56,16.53-5.29,16.86c-3.73,0.34-7.41-6.67-8.22-15.64
						c-0.81-8.98,1.56-16.53,5.29-16.86C891.86-3.53,895.54,3.48,896.34,12.45z"/>
				</g>
			</g>
			<g>
				<g>
					<path class="st6" d="M1028.53,187.66c0,0-8.07,4.61-29.87,8.52c-24.94,4.48-67.84,8.04-137.15,2.73
						c-16.11-1.21-33.65-2.92-52.72-5.21c0,0,5.47-25.14,18.53-54.94c17.83-40.74,49.89-90.21,101.56-96.09
						c51.03-5.82,76.26,42.17,88.53,84.49C1026.66,159.03,1028.53,187.66,1028.53,187.66z"/>
				</g>
				<g>
					<path class="st3" d="M1028.53,187.66c0,0-8.07,4.61-29.87,8.52l-6.64-59.77l25.39-9.25
						C1026.66,159.03,1028.53,187.66,1028.53,187.66z"/>
				</g>
				<g>
					<path class="st3" d="M869.67,153.38l-2.73,15.35c-3.11,17.25-19,29.2-36.45,27.39c-6.99-0.73-14.24-1.53-21.7-2.42
						c-24.53-2.73-71.75-71.85-71.75-71.85l-12.9,2.51c-4.19,14.87-7.34,18.65-9.63,18.53c-4.83-0.25-7.28-18.34-5.66-29.08
						c0.32-2.03,0.89-4.61,2.92-6.32c1.75-1.46,4.1-1.91,6.2-1.94c2.7,0.25,4.04,0.41,4.61,0.44c-0.7-0.13-2.51-0.48-4.61-0.44
						c-0.32-0.03-0.67-0.06-1.05-0.1c1.43-12.58,9.34-23.04,20.24-26.69c10.11-3.4,19.03,0.29,21.54,1.4c0,0,3.11-1.97,10.61-1.27
						c7.5,0.73,11.47,18.97,11.47,18.97l46.52,40.9C835.99,144.93,851.05,153.19,869.67,153.38z"/>
				</g>
				<g>
					<path class="st4" d="M722.57,108.2c-0.13,0-0.27-0.01-0.4-0.03c-0.75-0.14-2.39-0.42-4.18-0.41c-1.16,0.15-2.21-0.95-2.23-2.16
						c-0.02-1.21,0.95-2.21,2.16-2.22c2.23,0,4.15,0.32,4.96,0.47c1.19,0.22,2.01,1.37,1.8,2.56
						C724.5,107.45,723.61,108.2,722.57,108.2z"/>
				</g>
				<g>
					<path class="st4" d="M815.79,162.42c-0.35,0-0.71-0.09-1.04-0.26c-1.07-0.57-1.47-1.9-0.9-2.97l11.52-21.46
						c0.57-1.07,1.91-1.47,2.97-0.9c1.07,0.57,1.47,1.9,0.9,2.97l-11.52,21.46C817.33,162,816.57,162.42,815.79,162.42z"/>
				</g>
				<g>
					<path class="st2" d="M992.02,138.05c-0.76,0-1.45-0.53-1.61-1.31l-8.29-39.38c-0.18-0.89,0.38-1.76,1.27-1.95
						c0.92-0.16,1.76,0.39,1.95,1.27l8.29,39.38c0.18,0.89-0.38,1.76-1.27,1.95C992.25,138.04,992.13,138.05,992.02,138.05z"/>
				</g>
				<g>
					<path class="st2" d="M869.67,155.03c-0.27,0-0.53-0.06-0.78-0.2c-0.8-0.43-1.1-1.43-0.67-2.23l15.1-28.01
						c0.43-0.81,1.44-1.09,2.23-0.67c0.8,0.43,1.1,1.43,0.67,2.23l-15.1,28.01C870.82,154.72,870.25,155.03,869.67,155.03z"/>
				</g>
			</g>
		</g>
	</g>
	<g>
		<g>
			<path class="st1" d="M981.63,510.61c-6.97,12.39-17.82,21.07-30.69,27.02c-0.06,0.02-0.12,0.06-0.18,0.09
				c-17.19,7.9-37.95,10.96-57.97,11.54c-19.32,0.57-37.93-1.18-51.97-3.13c-14.58-2.03-24.24-4.28-24.6-4.39
				c-1.07-0.33-2.1-0.73-2.1-0.73c-0.77-0.28-1.53-0.61-2.27-0.95c-0.02,0-0.04-0.01-0.06-0.02l-0.22-0.11
				c-5.89-2.73-10.8-6.94-14.37-12.06c-4.31-6.22-6.62-13.78-6.22-21.66c0.43-8.24,2.32-17.34,7.06-26.17
				c9.91-18.5,32.49-36.22,55.42-37.82c8.72-0.61,20.94,0.45,33.31-7.24c2.84-1.77,3.78-2.39,6.42-4.07
				c3.78-2.4,23.17-14.69,46.3-12.1c5.67,0.64,24.6,3.62,38.13,19.47C996.08,459.92,992.28,491.68,981.63,510.61z"/>
		</g>
		<g>
			<g>
				<path class="st6" d="M956.37,526.71c-2,4.46-3.92,8.19-5.43,10.92c-0.06,0.02-0.12,0.06-0.18,0.09
					c-17.19,7.9-37.95,10.96-57.97,11.54c-6.57,0.05-12.65-0.24-18.11-0.73c-8.89-5.5-12.89-13.9-10.89-19.73
					c0.53-1.56,1.51-2.94,2.94-4.02c13.29-10.11,34.69-10.38,39.14-21.93c2.96-7.7,10.41-29.18,15.04-42.63
					c1.43-4.15,11.95-15.17,24.5-14.59c10.44,0.47,17.48,9.18,18.17,10.06C979.22,475.6,962.2,513.66,956.37,526.71z"/>
			</g>
			<g>
				<path class="st2" d="M936.84,532.81c-0.03,0-0.05,0-0.08,0l-18.88-2.5c-0.35-0.05-0.59-0.36-0.54-0.71
					c0.05-0.34,0.34-0.58,0.71-0.54l18.88,2.5c0.35,0.05,0.59,0.36,0.54,0.71C937.42,532.58,937.15,532.81,936.84,532.81z"/>
			</g>
		</g>
		<g>
			<g>
				<path class="st8" d="M835.72,493.06c-0.65-16.65-0.41-37.64,5.11-38.83c0.19-0.04,0.85-0.17,1.51,0.17
					C846.8,456.7,841.64,475.45,835.72,493.06z"/>
			</g>
			<g>
				<path class="st8" d="M835.72,493.06c-8.14-14.27-12.07-16.87-14.11-16.23c-0.77,0.24-1.33,0.96-1.53,1.62
					C818.66,483.06,832.1,490.99,835.72,493.06z"/>
			</g>
			<g>
				<path class="st8" d="M835.72,493.06c0,0,7.6-21.86,12.85-20.56C853.81,473.8,835.72,493.06,835.72,493.06z"/>
			</g>
			<g>
				<polygon class="st9" points="845.69,516.55 824.91,516.55 823.07,491.1 847.53,491.1 				"/>
			</g>
		</g>
		<g>
			<g>
				<path class="st2" d="M892.79,443.15c0,0-8.88-1.73-6.93-10.72c1.95-8.99,7.79-8.88,7.79-8.88s9.64-14.83,27.61-5.85
					c17.97,8.99,4.76,21.76,14.83,30.31c10.07,8.55,24.95,47.92-7.39,44.2L892.79,443.15z"/>
			</g>
			<g>
				<path class="st14" d="M917.31,533.01c-0.9,1.51-4.11,6.78-9.59,10.1c-16.21,9.83-40.87-4.31-48.94-8.94
					c-7.39-4.24-12.89-8.75-16.45-11.99l-26.13,19.56c-1.49-0.46-2.95-1.02-4.37-1.68c-0.02,0-0.04-0.01-0.06-0.02l-0.22-0.11
					c-5.89-2.73-10.8-6.94-14.37-12.06c7.7-8.63,26.8-28.83,37.47-29.39c13.57-0.72,48.61,17.86,48.61,17.86l38.49-1.3
					C921.88,518.16,921.77,525.5,917.31,533.01z"/>
			</g>
			<g>
				<g>
					<path class="st5" d="M912.06,464.37c0,0-15.44,9.38-14.72,12.99c0.72,3.61,0.72,3.61,0.72,3.61l-14.8,35.36
						c4.91,1.67,10.93,3.3,17.9,4.33c7.76,1.15,14.64,1.25,20.22,0.96c2.2-7.02,15.89-51.54,4.03-58.12
						c-0.97-0.54-2.17-0.85-3.66-0.81L912.06,464.37z"/>
				</g>
				<g>
					<path class="st10" d="M867.69,494.67l-11.59-4.74c-0.76-0.31-1.28-1.25-1.28-2.33V457.9c0-1.63,1.17-2.8,2.32-2.33l11.59,4.74
						c0.76,0.31,1.28,1.25,1.28,2.33v29.71C870.02,493.98,868.85,495.14,867.69,494.67z"/>
				</g>
				<g>
					<path class="st3" d="M923.43,485.86c-6.17,7.92-12.44,13.33-17.56,16.98c-1.49,1.07-2.89,1.98-4.15,2.77
						c-8.36,5.21-11.69,5.09-12.99,4.96c-11.83-1.24-17.34-20.92-17.63-21.99l-7.98-0.53c0,0-5.04-5.97-4.02-7.95
						c1.03-1.98,3.56-2.78,3.56-2.78s-5.56-2.34-2.78-4.18c2.78-1.85,10.4,1.52,10.4,1.52s-0.8-4.67,3.46-2.49
						c4.25,2.16,6.34,14.65,6.34,14.65c3.84,7.93,10.48,7.27,17.11,3.56c10.07-5.61,20.07-18.21,20.07-18.21L923.43,485.86z"/>
				</g>
				<g>
					<path class="st5" d="M925.77,487.52c-2.22,2.39-4.93,4.99-8.16,7.58c-4.19,3.36-8.23,5.87-11.74,7.75
						c-2.44-3.47-6.09-8.67-8.69-12.46c5.99-3.92,9.79-7.99,12.2-11.09c2.93-3.77,4.57-7.1,8.52-8.24c2.35-0.68,5.56-0.59,7.72,1.17
						C928.99,474.95,929.57,481.5,925.77,487.52z"/>
				</g>
				<g>
					<path class="st3" d="M889.65,464.87c0,0-0.98-5.12-6.72-0.97c-5.73,4.15-8.15,5.93-7.11,7.69c1.05,1.76,7.43-2.06,7.43-2.06"/>
				</g>
				<g>
					<path class="st3" d="M883.25,477.38v0.02c-1.19,0.4-2.01,0.08-2.57-0.57c-1.43-1.66-1.29-5.39-1.29-5.39
						c0.71-0.32,1.42-0.64,2.13-0.96C882.1,472.78,882.68,475.08,883.25,477.38z"/>
				</g>
				<g>
					<path class="st3" d="M884.61,477.76c-0.54,0.15-0.99,0-1.36-0.37v-0.02c-0.25-0.24-0.47-0.57-0.64-0.96
						c-0.02-0.02-0.02-0.03-0.02-0.03c-0.97-2.15-1.07-5.91-1.07-5.91c0.96-1.27,1.93-2.54,2.89-3.81c0.82,1.59,1.63,3.18,2.45,4.77
						C886.86,471.44,887.48,476.91,884.61,477.76z"/>
				</g>
				<g>
					<path class="st3" d="M891.86,495.75l-6.71-1.29l2.74-1.46c-6.43-0.29-7.2-16.18-7.2-16.18c0.55,0.65,1.38,0.97,2.57,0.57
						c0.37,0.37,0.82,0.52,1.36,0.37c2.87-0.86,2.25-6.33,2.25-6.33l-3.89-0.7c0.05-0.4,0.2-0.84,0.44-1.31l6.19-4.51
						c0.59-0.07,1.14-0.03,1.63,0.08h0.07c2.18,0.5,3.64,2.58,3.63,4.82v0.35c-0.07,9.21-0.34,13.41,1.66,14.33
						c0.54,0.24,0.79,0.05,1.04,0.34C899.33,486.71,891.86,495.75,891.86,495.75z"/>
				</g>
				<g>
					<path class="st4" d="M890.97,478.11c-0.06,0-0.13-0.01-0.19-0.02c-0.71-0.17-2.46-0.74-3.41-2.48
						c-1.05-1.93-0.64-4.41,1.01-6.17c0.32-0.34,0.85-0.35,1.19-0.04c0.34,0.32,0.35,0.85,0.04,1.19c-1.14,1.21-1.45,2.94-0.76,4.21
						c0.62,1.14,1.83,1.53,2.32,1.65c0.45,0.11,0.73,0.56,0.62,1.01C891.7,477.85,891.35,478.11,890.97,478.11z"/>
				</g>
				<g>
					<path class="st4" d="M884.25,473.15c-0.39,0-0.73-0.07-1.05-0.21c-0.4-0.17-1.3-0.75-1.07-2.33c0.07-0.46,0.5-0.77,0.95-0.71
						c0.46,0.07,0.78,0.49,0.71,0.95c-0.03,0.23-0.03,0.51,0.07,0.55c0.22,0.09,0.91,0.22,2.58-0.7c1.1-0.6,2-1.32,2.01-1.33
						c0.35-0.28,0.89-0.25,1.18,0.09c0.29,0.35,0.28,0.85-0.06,1.15l-0.56-0.62l0.56,0.63c-0.11,0.09-1.09,0.88-2.32,1.55
						C886.08,472.83,885.09,473.15,884.25,473.15z"/>
				</g>
				<g>
					<path class="st4" d="M883.4,470.26c-0.12,0-0.25-0.03-0.36-0.08c-0.42-0.2-0.59-0.7-0.39-1.12c0.83-1.73,2.84-4.03,5.76-4.79
						c0.38-0.1,0.74-0.15,1.1-0.19c0.45-0.04,0.88,0.28,0.92,0.74c0.05,0.46-0.28,0.88-0.74,0.92c-0.28,0.03-0.56,0.07-0.86,0.15
						c-2.21,0.58-3.94,2.38-4.67,3.9C884.01,470.09,883.71,470.26,883.4,470.26z"/>
				</g>
				<g>
					<path class="st4" d="M897.18,491.22c-0.29,0-0.57-0.15-0.72-0.41c-0.24-0.4-0.11-0.91,0.29-1.15
						c0.09-0.06,9.42-5.67,14.47-14.25c0.23-0.4,0.75-0.53,1.15-0.3c0.4,0.23,0.53,0.75,0.3,1.15c-5.27,8.95-14.66,14.6-15.05,14.84
						C897.48,491.18,897.33,491.22,897.18,491.22z"/>
				</g>
			</g>
			<g>
				<g>
					<path class="st3" d="M921.75,462.69c-1.54,1.54-12.07,12.03-16.3,11.97c-0.23,0-0.7-0.03-0.92-0.34
						c-1.28-1.75,7.52-9.95,7.52-9.95c-0.15-0.72-0.32-1.43-0.47-2.15l-0.64-2.89c-0.55,0.55-1.39,1.33-2.52,2.13
						c-1.43,1.04-4.72,3.26-7.42,3.34c-5.05,0.13-8.44-10.04-8.44-10.04c-0.81-0.27-1.61-0.52-2.43-0.79
						c0.6-1.78,1.19-3.56,1.78-5.34c-2.01-5.14,0-15.46,0-15.46l0.87-3.29c1.01,1.63,4.38,6.65,11.11,9.21
						c6.09,2.32,11.41,1.26,13.36,0.79c0.65,3.36,1.33,6.7,1.98,10.05v0.02c0.47,2.38,0.94,4.78,1.43,7.17
						C921.01,458.98,921.38,460.85,921.75,462.69z"/>
				</g>
				<g>
					<path class="st3" d="M921.4,446.31c-1.08,3.28-3.49,5.44-5.39,4.81c-1.9-0.62-2.56-3.79-1.48-7.08
						c1.08-3.28,3.49-5.44,5.39-4.81C921.81,439.86,922.48,443.03,921.4,446.31z"/>
				</g>
				<g>
					<path class="st4" d="M920.66,457.14l-9.08,5.09l-0.64-2.89l8.29-9.36C919.71,452.35,920.17,454.75,920.66,457.14z"/>
				</g>
			</g>
		</g>
		<g>
			<path class="st6" d="M952.26,534.7l-1.51,3.01c-17.19,7.9-37.95,10.96-57.97,11.54c-19.32,0.57-37.93-1.18-51.97-3.13
				c1.06-4.07,5.37-13.76,22.97-17.32c2.31-0.46,4.84-0.83,7.62-1.06C901.4,525.28,952.26,534.7,952.26,534.7z"/>
		</g>
	</g>
	<g>
		<g>
			<path class="st1" d="M-1.05-114.99c-7.19,14.83-19.35,28.1-35.24,39.46c-78.52,56.35-247.64,67.31-349.09,0
				c-16.74-11.06-31.62-24.28-43.94-39.76c-32.88-41.27-52.33-104.41-47.71-164.04c1.91-24.48,4.78-55.45,27.25-82.35
				c45.34-54.19,129-41.93,133.22-41.22c58.57,9.5,59.57,44.44,144.28,98.13C-78.07-244.99-24.43-253.43-1.3-200.05
				C9.31-175.61,11.92-141.83-1.05-114.99z"/>
		</g>
		<g>
			<g>
				<g>
					<path class="st6" d="M-302.87-95.85l19.65-88.19c4.93-22.12,19.74-40.74,40.18-50.52l57.99-27.75l59.49,24.75
						c23.92,9.95,41.4,31.05,46.71,56.41l17.88,85.3H-302.87z"/>
				</g>
				<g>
					<path class="st15" d="M-221.8-124.05c0,0,15.51-20.33,22.97-19.04s21.24,25.62,21.24,25.62h61.5l1.73-15.57
						c0,0,39.34,7.13,53.4,37.18h-153.92L-221.8-124.05z"/>
				</g>
				<g>
					<path class="st2" d="M-114.36-131.14c-0.96,0-1.78-0.72-1.88-1.69l-5.34-52.5c-0.1-1.04,0.65-1.96,1.68-2.07
						c1.05-0.08,1.96,0.65,2.07,1.68l5.34,52.5c0.1,1.04-0.65,1.96-1.68,2.07C-114.23-131.15-114.3-131.14-114.36-131.14z"/>
				</g>
			</g>
			<g>
				<g>
					<path class="st15" d="M-212.61-271.17v40.86c0,0-2.92,25.29,13.3,23.02c16.21-2.27,33.41-47.05,33.41-47.05l-2.68-39.74
						L-212.61-271.17z"/>
				</g>
				<g>
					<polygon class="st4" points="-166.49,-263.34 -212.59,-233.78 -212.59,-271.18 -168.61,-294.11 					"/>
				</g>
				<g>
					
						<ellipse transform="matrix(0.361 -0.9326 0.9326 0.361 162.4637 -393.1398)" class="st3" cx="-205.66" cy="-315.13" rx="60.64" ry="42.39"/>
				</g>
				<g>
					<path class="st2" d="M-160.75-322.59c0,0-22.57-12.35-34.89-41.1c0,0-57.72,45.18-71.34,17.51c-13.62-27.67,20.1-49.51,24-30.7
						c0,0,31.09-50.37,82.24-16.86S-160.75-322.59-160.75-322.59z"/>
				</g>
				<g>
					<path class="st3" d="M-152.39-309.02c-3.29,9.16-10.29,15.03-15.64,13.11s-7.03-10.9-3.74-20.06
						c3.29-9.16,10.29-15.03,15.64-13.11C-150.77-327.17-149.1-318.18-152.39-309.02z"/>
				</g>
			</g>
		</g>
		<g>
			<g>
				<g>
					<rect x="-407.83" y="-170.65" class="st16" width="55.13" height="74.82"/>
				</g>
				<g>
					<path class="st16" d="M-428.75-132.99c0,6.51,5.31,11.79,11.83,11.79c3.68,0,6.95-1.67,9.1-4.29v15.87
						c-2.8,1.13-5.9,1.71-9.1,1.71c-13.86,0-25.11-11.21-25.11-25.07c0-13.86,11.24-25.11,25.11-25.11c3.2,0,6.3,0.58,9.1,1.71
						v15.87c-2.15-2.62-5.42-4.29-9.1-4.29C-423.44-144.81-428.75-139.54-428.75-132.99z"/>
				</g>
			</g>
			<g>
				<path class="st12" d="M-392.37-226.58c6.78-10.35,16.65-18.73,21.62-30.06c6.84-15.58,3.24-33.93,8.46-50.13
					c7.58-23.5,31.52-37.34,45.56-57.65c15.28-22.11,17.66-52.51,6.01-76.73c-5.32-11.06-13.68-21.06-24.85-26.15
					c-13.24-6.03-29.37-4.34-41.83,3.18c-12.46,7.51-21.27,20.36-25.19,34.37c-9.67,34.54,9.03,71.79,1.61,106.88
					c-4.41,20.87-17.71,39.02-22.2,59.87c-3.9,18.14-0.23,37.54,9.14,53.46c2.74,4.66,10.39,19.4,14.47,9.26
					c1.55-3.84,0.59-8.56,1.43-12.61C-397.13-217.74-395.09-222.43-392.37-226.58z"/>
			</g>
		</g>
		<g>
			<g>
				<rect x="-438.42" y="-95.85" class="st7" width="431.15" height="20.32"/>
			</g>
			<g>
				<path class="st11" d="M-36.29-75.52c-78.52,56.35-247.64,67.31-349.09,0H-36.29z"/>
			</g>
		</g>
		<g>
			<g>
				<path class="st10" d="M-206.51-105.61c1.32,5.37-2.13,9.76-7.66,9.76h-127.76c-5.53,0-11.13-4.39-12.45-9.76l-23.31-95.05
					c-1.32-5.37,2.13-9.76,7.66-9.76h127.76c5.53,0,11.13,4.39,12.45,9.76L-206.51-105.61z"/>
			</g>
			<g>
				<path class="st1" d="M-279.54-151.79c1.42,7.77-3.72,14.07-11.49,14.07c-7.77,0-15.22-6.3-16.65-14.07
					c-1.42-7.77,3.72-14.07,11.49-14.07C-288.41-165.86-280.96-159.56-279.54-151.79z"/>
			</g>
		</g>
	</g>
</g>
</svg>
