<?xml version="1.0" encoding="utf-8"?>
<!-- Generator: Adobe Illustrator 27.8.1, SVG Export Plug-In . SVG Version: 6.00 Build 0)  -->
<svg version="1.1" xmlns="http://www.w3.org/2000/svg" xmlns:xlink="http://www.w3.org/1999/xlink" x="0px" y="0px"
	 viewBox="0 0 654 441" style="enable-background:new 0 0 654 441;" xml:space="preserve">
<style type="text/css">
	.st0{opacity:0.1;fill:#FFFFFF;}
	.st1{fill:#DFEAF7;}
	.st2{fill:#002D53;}
	.st3{fill:#FFB3AE;}
	.st4{fill:#FF7A72;}
	.st5{fill:#FFB042;}
	.st6{fill:#3D71F2;}
	.st7{fill:#D18C7E;}
	.st8{fill:#40C1B0;}
	.st9{fill:#FF828A;}
	.st10{fill:#FFFFFF;}
	.st11{fill:#BC7F72;}
	.st12{fill:#F1F3F6;}
	.st13{fill:#004072;}
	.st14{fill:#004070;}
	.st15{fill:#FFB0B3;}
	.st16{fill:#6190E5;}
</style>
<g id="BACKGROUND">
	<rect x="1201" y="-216" class="st0" width="500" height="500"/>
</g>
<g id="OBJECTS">
	<g>
		<g>
			<path class="st1" d="M743.61-225.25c1.05,39.24-38.19,77.15-81.89,102.85c-15.3,9.03-31.09,16.51-45.95,22.07
				C567.95-82.44,527.72-83.82,498-84.75c-0.44-0.06-0.83-0.06-1.27-0.06c-0.94-0.06-1.93-0.06-2.86-0.11
				c-49.2-2.04-99-12.66-142.81-35.61c-1.16-0.61-2.31-1.21-3.47-1.87c-37.75-20.2-75.45-49.03-78.97-94.98
				c-1.76-22.62,5.39-45.62,18.99-63.73c14.69-19.54,36.16-30.49,55.53-44.63c13.65-9.96,19.7-24.38,26.09-39.35
				c4.46-10.4,9.3-20.69,14.86-30.6c3.08-5.39,6.27-10.62,9.8-15.74c24.6-35.83,65.32-62.08,108.47-68.24
				c44.96-6.38,87.89,14.58,117.33,48.32c17.78,20.31,29.99,45.4,35.28,71.87c4.35,21.63-0.11,48.7,16.73,65.65
				c19.54,19.65,47.6,13.81,63.51,38.3C743.12-243.36,743.45-230.64,743.61-225.25z"/>
		</g>
		<g>
			<g>
				<path class="st2" d="M585.29-303.73c39.94-34.22,51.81-96.7,24.49-136.9c-15.75-23.18-40.02-32.33-51.94-35.85
					c-4.96-7.22-17.52-23.26-38.8-29.11c-37.1-10.19-69.3,19.27-73.85,23.43c-42.63,39-58.68,134.27-0.47,180.8
					C482.54-271.13,544.17-268.5,585.29-303.73z"/>
			</g>
			<g>
				<g>
					<rect x="488.32" y="-360.52" class="st3" width="45.79" height="56.46"/>
				</g>
				<g>
					<path class="st4" d="M534.11-360.52v27.19c-24.16,1.76-37.97-1.38-45.79-6.16v-21.02H534.11z"/>
				</g>
				<g>
					<path class="st3" d="M579.33-394.43c-4.37,11.62-14.99,18.39-23.72,15.11c-8.73-3.28-12.28-15.36-7.91-26.99
						c4.37-11.62,14.99-18.39,23.72-15.11C580.15-418.13,583.7-406.05,579.33-394.43z"/>
				</g>
				<g>
					<path class="st3" d="M450.45-394.43c4.37,11.62,14.99,18.39,23.72,15.11c8.73-3.28,12.28-15.36,7.91-26.99
						c-4.37-11.62-14.99-18.39-23.72-15.11S446.08-406.05,450.45-394.43z"/>
				</g>
				<g>
					<path class="st3" d="M557.49-405.2c7.36,20.26-15.88,60.7-45.61,60.7c-25.19,0-45.61-27.18-45.61-60.7
						c0-36.52,36.65-65.15,45.61-60.7c3.61,1.79,0.64,7.86,3.89,18.28C523.51-422.76,551.21-422.46,557.49-405.2z"/>
				</g>
			</g>
			<g>
				<path class="st5" d="M639.74-145.34H378.48v-50.89c0-72.15,58.49-130.63,130.63-130.63l0,0c72.15,0,130.63,58.49,130.63,130.63
					V-145.34z"/>
			</g>
		</g>
		<g>
			<g>
				<g>
					<rect x="606.73" y="-226.55" class="st6" width="71.94" height="81.9"/>
				</g>
				<g>
					<path class="st6" d="M701.57-185.32c0,7.13-5.82,12.91-12.95,12.91c-4.02,0-7.61-1.83-9.96-4.7v17.37
						c3.07,1.24,6.45,1.87,9.96,1.87c15.18,0,27.49-12.27,27.49-27.45s-12.31-27.49-27.49-27.49c-3.51,0-6.89,0.64-9.96,1.87v17.37
						c2.35-2.87,5.94-4.7,9.96-4.7C695.76-198.26,701.57-192.49,701.57-185.32z"/>
				</g>
			</g>
			<g>
				<rect x="292.62" y="-144.64" class="st7" width="438.51" height="22.25"/>
			</g>
			<g>
				<g>
					<path class="st8" d="M367.88-195.1c-1.51-38.85-0.96-87.85,11.91-90.62c0.44-0.1,1.98-0.4,3.53,0.39
						C393.75-279.96,381.72-236.21,367.88-195.1z"/>
				</g>
				<g>
					<path class="st8" d="M367.88-195.1c-19-33.31-28.16-39.36-32.93-37.88c-1.8,0.56-3.09,2.23-3.57,3.79
						C328.09-218.44,359.45-199.93,367.88-195.1z"/>
				</g>
				<g>
					<path class="st8" d="M367.88-195.1c0,0,17.73-51.02,29.98-47.99C410.12-240.06,367.88-195.1,367.88-195.1z"/>
				</g>
				<g>
					<polygon class="st9" points="340.07,-145.34 388.58,-145.34 392.87,-204.73 335.77,-204.73 					"/>
				</g>
			</g>
			<g>
				<g>
					<path class="st10" d="M608.86-155.65c0,6.05-4.95,11.01-11.01,11.01H420.37c-6.05,0-11.01-4.95-11.01-11.01V-266.4
						c0-6.05,4.95-11.01,11.01-11.01h177.48c6.05,0,11.01,4.95,11.01,11.01V-155.65z"/>
				</g>
				<g>
					<circle class="st1" cx="509.11" cy="-206.91" r="15.4"/>
				</g>
			</g>
			<g>
				<path class="st11" d="M661.72-122.4c-15.3,9.03-31.09,16.51-45.95,22.07C567.95-82.44,527.72-83.82,498-84.75
					c-0.44-0.06-0.83-0.06-1.27-0.06c-0.94-0.06-1.93-0.06-2.86-0.11c-49.2-2.04-99-12.66-142.81-35.61
					c-1.16-0.61-2.31-1.21-3.47-1.87H661.72z"/>
			</g>
		</g>
	</g>
	<g>
		<g>
			<g>
				<path class="st1" d="M1401.42,49.3c-8.6,14.84-18.96,29.28-31.21,43.06l-0.04,0.04c-0.13,0.13-0.26,0.31-0.4,0.44
					c-24.32,27.3-59.66,42.19-96.22,41.7l-140.78-1.84c0,0-45.04-13.13-89.99-40.3c-0.04,0-0.04-0.04-0.09-0.04
					c-24.06-14.57-48.11-33.27-65.1-56.01C963.1,16.99,953.75-5.44,953.84-30.9c0,0-7.29-90.3,145.74-95.39
					c69.93-8.16,58.03-91.22,207.94-88.19c5.14,0.09,10.14,0.44,14.93,1.05c8.17,1.01,15.94,2.77,23.27,5.09
					c38.98,12.64,66.24,43.41,79.41,82.79c2.5,7.46,4.52,15.23,6.01,23.27C1439.66-55.84,1430.74-1.1,1401.42,49.3z"/>
			</g>
			<g>
				<g>
					<path class="st12" d="M1431.12-102.29h-108.66v-111.14c8.17,1.03,15.91,2.79,23.24,5.11c39.01,12.63,66.26,43.39,79.42,82.78
						C1427.65-118.09,1429.63-110.31,1431.12-102.29z"/>
				</g>
				<g>
					<path class="st1" d="M1425.13-125.54h-79.42v-82.78C1384.71-195.68,1411.96-164.92,1425.13-125.54z"/>
				</g>
			</g>
		</g>
		<g>
			<g>
				<path class="st2" d="M1378.58,36.36h-64.73c0.09-14.33,0.18-28.65,0.27-42.98c-1.33-0.75-2.45-1.61-3.4-2.55
					c-12.74-12.61,0.7-43.55,2.27-47.07c2.83,4.15,5.66,8.3,8.48,12.46h17.57c2.33-4.16,4.66-8.33,6.98-12.49
					c1.87,3.96,3.67,8.43,5.21,13.38c4.46,14.28,5.1,27.17,4.64,36.8C1361.54-5.88,1365.33-4.12,1378.58,36.36z"/>
			</g>
			<g>
				<path class="st10" d="M1318.88-25.89c0,1.88-0.26,3.41-0.59,3.41c-0.32,0-0.59-1.53-0.59-3.41c0-1.88,0.26-3.41,0.59-3.41
					C1318.62-29.3,1318.88-27.77,1318.88-25.89z"/>
			</g>
			<g>
				<path class="st10" d="M1336.16-25.89c0,1.88-0.26,3.41-0.59,3.41c-0.32,0-0.59-1.53-0.59-3.41c0-1.88,0.26-3.41,0.59-3.41
					C1335.9-29.3,1336.16-27.77,1336.16-25.89z"/>
			</g>
		</g>
		<g>
			<g>
				<g>
					<polygon class="st2" points="1138.32,36.36 1098.59,36.36 1114.21,-26.5 1153.94,-26.5 					"/>
				</g>
				<g>
					<g>
						<path class="st10" d="M1233.37,0.88c0.44,4.17-2.63,7.59-6.83,7.59h-205.03c-4.2,0-8-3.42-8.44-7.59l-13.59-127.77
							c-0.44-4.17,2.63-7.59,6.83-7.59h205.03c4.2,0,8,3.42,8.44,7.59L1233.37,0.88z"/>
					</g>
					<g>
						<path class="st2" d="M1233.37,0.88c0.44,4.17-2.63,7.59-6.83,7.59h-205.03c-4.2,0-8-3.42-8.44-7.59l-13.59-127.77
							c-0.44-4.17,2.63-7.59,6.83-7.59h205.03c4.2,0,8,3.42,8.44,7.59L1233.37,0.88z"/>
					</g>
				</g>
				<g>
					<g>
						<path class="st13" d="M1030.09-1.06c-4.2,0-8-3.42-8.44-7.59l-11.56-108.7c-0.44-4.17,2.63-7.59,6.83-7.59h185.86
							c4.2,0,8,3.42,8.44,7.59l11.56,108.7c0.44,4.17-2.63,7.59-6.83,7.59H1030.09z"/>
					</g>
				</g>
				<g>
					<g>
						<polygon class="st9" points="1076.37,-90.94 1032.08,-90.94 1031,-97.85 1075.29,-97.85 						"/>
					</g>
					<g>
						<polygon class="st10" points="1132.29,-90.94 1088,-90.94 1086.92,-97.85 1131.21,-97.85 						"/>
					</g>
					<g>
						<polygon class="st10" points="1079.67,-70.92 1035.38,-70.92 1034.3,-77.83 1078.59,-77.83 						"/>
					</g>
					<g>
						<polygon class="st10" points="1112.9,-53.86 1068.61,-53.86 1067.53,-60.77 1111.82,-60.77 						"/>
					</g>
					<g>
						<polygon class="st10" points="1139.22,-34.4 1094.93,-34.4 1093.85,-41.31 1138.14,-41.31 						"/>
					</g>
					<g>
						<polygon class="st9" points="1166.17,-34.4 1144.03,-34.4 1142.95,-41.31 1165.09,-41.31 						"/>
					</g>
					<g>
						<polygon class="st9" points="1161.91,-53.86 1117.62,-53.86 1116.54,-60.77 1160.83,-60.77 						"/>
					</g>
				</g>
			</g>
			<g>
				<g>
					<path class="st11" d="M1370.21,92.36l-0.04,0.04c-0.13,0.13-0.26,0.31-0.4,0.44c-24.32,27.3-59.66,42.19-96.22,41.7
						l-140.78-1.84c0,0-45.04-13.13-89.99-40.3c-0.04,0-0.04-0.04-0.09-0.04H1370.21z"/>
				</g>
				<g>
					<path class="st7" d="M1401.43,49.3c-8.61,14.84-19,29.33-31.27,43.09h-327.36c-24.12-14.59-48.21-33.24-65.21-56.02h414.59
						L1401.43,49.3z"/>
				</g>
			</g>
		</g>
		<g>
			<g>
				<g>
					<path class="st3" d="M1263.56-53.89c-9.55,28.77-33.79,46.61-54.14,39.86c-20.35-6.76-29.1-35.56-19.54-64.33
						c9.55-28.77,33.79-46.62,54.14-39.86C1264.37-111.46,1273.12-82.66,1263.56-53.89z"/>
				</g>
				<g>
					<rect x="1224.36" y="-47.02" class="st3" width="41.15" height="49.08"/>
				</g>
				<g>
					<path class="st2" d="M1186.79-65.44c0,0-33.97-19.34-6.98-52.94c6.98-10.19,6.98,10.57,6.98,10.57s23.18-67.2,62.47-24.35
						c0,0,37.13,6.29,45.39,31.34c2.67,8.1,1.21,15.02-0.24,22.46c-0.51,2.61-9.97,47.72-41.73,53.28
						c-4.44,0.78-14.81,1.74-28.32-5.38C1211.83-42.12,1199.31-53.78,1186.79-65.44z"/>
				</g>
				<g>
					<path class="st3" d="M1220.34-48.55c0.81,8.98-1.56,16.53-5.29,16.86c-3.73,0.34-7.41-6.67-8.22-15.64
						c-0.81-8.98,1.56-16.53,5.29-16.86C1215.86-64.53,1219.54-57.52,1220.34-48.55z"/>
				</g>
			</g>
			<g>
				<g>
					<path class="st6" d="M1352.53,126.66c0,0-8.07,4.61-29.87,8.52c-24.94,4.48-67.84,8.04-137.15,2.73
						c-16.11-1.21-33.65-2.92-52.72-5.21c0,0,5.47-25.14,18.53-54.94c17.83-40.74,49.89-90.21,101.56-96.09
						c51.03-5.82,76.26,42.17,88.53,84.49C1350.66,98.03,1352.53,126.66,1352.53,126.66z"/>
				</g>
				<g>
					<path class="st3" d="M1352.53,126.66c0,0-8.07,4.61-29.87,8.52l-6.64-59.77l25.39-9.25
						C1350.66,98.03,1352.53,126.66,1352.53,126.66z"/>
				</g>
				<g>
					<path class="st3" d="M1193.67,92.38l-2.73,15.35c-3.11,17.25-19,29.2-36.45,27.39c-6.99-0.73-14.24-1.53-21.7-2.42
						c-24.53-2.73-71.75-71.85-71.75-71.85l-12.9,2.51c-4.19,14.87-7.34,18.65-9.63,18.53c-4.83-0.25-7.28-18.34-5.66-29.08
						c0.32-2.03,0.89-4.61,2.92-6.32c1.75-1.46,4.1-1.91,6.2-1.94c2.7,0.25,4.04,0.41,4.61,0.44c-0.7-0.13-2.51-0.48-4.61-0.44
						c-0.32-0.03-0.67-0.06-1.05-0.1c1.43-12.58,9.34-23.04,20.24-26.69c10.1-3.4,19.03,0.29,21.54,1.4c0,0,3.11-1.97,10.61-1.27
						c7.5,0.73,11.47,18.97,11.47,18.97l46.52,40.9C1159.99,83.93,1175.05,92.19,1193.67,92.38z"/>
				</g>
				<g>
					<path class="st4" d="M1046.57,47.2c-0.13,0-0.27-0.01-0.4-0.03c-0.75-0.14-2.39-0.42-4.18-0.41c-1.16,0.15-2.21-0.95-2.23-2.16
						c-0.02-1.21,0.95-2.21,2.16-2.22c2.23,0,4.15,0.32,4.96,0.47c1.19,0.22,2.01,1.37,1.8,2.56
						C1048.5,46.45,1047.61,47.2,1046.57,47.2z"/>
				</g>
				<g>
					<path class="st4" d="M1139.79,101.42c-0.35,0-0.71-0.09-1.04-0.26c-1.07-0.57-1.47-1.9-0.9-2.97l11.52-21.46
						c0.57-1.07,1.91-1.47,2.97-0.9c1.07,0.57,1.47,1.9,0.9,2.97l-11.52,21.46C1141.33,101,1140.57,101.42,1139.79,101.42z"/>
				</g>
				<g>
					<path class="st2" d="M1316.02,77.05c-0.76,0-1.45-0.53-1.61-1.31l-8.29-39.38c-0.18-0.89,0.38-1.76,1.27-1.95
						c0.92-0.16,1.76,0.39,1.95,1.27l8.29,39.38c0.18,0.89-0.38,1.76-1.27,1.95C1316.25,77.04,1316.13,77.05,1316.02,77.05z"/>
				</g>
				<g>
					<path class="st2" d="M1193.67,94.03c-0.27,0-0.53-0.06-0.78-0.2c-0.8-0.43-1.1-1.43-0.67-2.23l15.1-28.01
						c0.43-0.81,1.44-1.09,2.23-0.67c0.8,0.43,1.1,1.43,0.67,2.23l-15.1,28.01C1194.82,93.72,1194.25,94.03,1193.67,94.03z"/>
				</g>
			</g>
		</g>
	</g>
	<g>
		<g>
			<path class="st1" d="M613.67,311.27c-22.15,39.36-56.61,66.91-97.48,85.82c-0.19,0.08-0.39,0.19-0.58,0.27
				c-54.6,25.08-120.55,34.81-184.15,36.66c-61.36,1.81-120.47-3.74-165.08-9.96c-46.31-6.44-76.98-13.58-78.14-13.93
				c-3.4-1.04-6.68-2.32-6.68-2.32c-2.43-0.89-4.86-1.93-7.22-3.01c-0.08,0-0.12-0.04-0.19-0.08l-0.69-0.35
				c-18.72-8.68-34.31-22.03-45.65-38.32c-13.7-19.76-21.03-43.76-19.76-68.8c1.35-26.16,7.37-55.07,22.42-83.12
				C61.97,155.37,133.67,99.11,206.52,94.01c27.71-1.93,66.53,1.43,105.81-23c9.02-5.61,12.01-7.6,20.41-12.92
				c12.01-7.61,73.59-46.65,147.06-38.42c18.02,2.02,78.13,11.51,121.1,61.84C659.58,150.24,647.51,251.14,613.67,311.27z"/>
		</g>
		<g>
			<g>
				<path class="st6" d="M533.45,362.4c-6.37,14.16-12.46,26.01-17.25,34.69c-0.19,0.08-0.39,0.19-0.58,0.27
					c-54.6,25.08-120.55,34.81-184.15,36.66c-20.88,0.15-40.17-0.77-57.54-2.32c-28.25-17.48-40.94-44.15-34.58-62.67
					c1.7-4.94,4.79-9.34,9.34-12.77c42.22-32.11,110.17-32.96,124.33-69.65c9.42-24.47,33.07-92.69,47.77-135.41
					c4.55-13.2,37.97-48.2,77.83-46.35c33.15,1.5,55.53,29.17,57.73,31.95C606.03,200.06,551.97,320.95,533.45,362.4z"/>
			</g>
			<g>
				<path class="st2" d="M471.42,381.78c-0.08,0-0.17-0.01-0.26-0.02l-59.98-7.93c-1.1-0.15-1.86-1.15-1.72-2.24
					c0.15-1.09,1.08-1.83,2.24-1.72l59.98,7.93c1.1,0.15,1.86,1.15,1.72,2.24C473.27,381.05,472.41,381.78,471.42,381.78z"/>
			</g>
		</g>
		<g>
			<g>
				<path class="st8" d="M150.22,255.52c-2.05-52.88-1.31-119.57,16.22-123.34c0.6-0.13,2.7-0.55,4.8,0.54
					C185.43,140.03,169.04,199.57,150.22,255.52z"/>
			</g>
			<g>
				<path class="st8" d="M150.22,255.52c-25.86-45.34-38.33-53.57-44.82-51.56c-2.45,0.76-4.21,3.04-4.86,5.16
					C96.05,223.76,138.74,248.94,150.22,255.52z"/>
			</g>
			<g>
				<path class="st8" d="M150.22,255.52c0,0,24.12-69.44,40.8-65.31C207.7,194.33,150.22,255.52,150.22,255.52z"/>
			</g>
			<g>
				<polygon class="st9" points="181.91,330.13 115.88,330.13 110.04,249.3 187.75,249.3 				"/>
			</g>
		</g>
		<g>
			<g>
				<path class="st2" d="M331.49,96.99c0,0-28.2-5.5-22.01-34.04c6.19-28.54,24.76-28.2,24.76-28.2s30.6-47.11,87.68-18.57
					c57.08,28.54,15.13,69.12,47.11,96.28c31.98,27.16,79.24,152.2-23.48,140.4L331.49,96.99z"/>
			</g>
			<g>
				<path class="st14" d="M409.4,382.41c-2.86,4.79-13.04,21.53-30.45,32.07c-51.48,31.22-129.81-13.7-155.44-28.4
					c-23.46-13.47-40.94-27.78-52.25-38.09l-83,62.13c-4.75-1.47-9.38-3.24-13.89-5.33c-0.08,0-0.12-0.04-0.19-0.08l-0.69-0.35
					c-18.72-8.68-34.31-22.03-45.65-38.32c24.47-27.4,85.13-91.57,119.01-93.35c43.1-2.28,154.39,56.73,154.39,56.73l122.25-4.13
					C423.91,335.26,423.56,358.56,409.4,382.41z"/>
			</g>
			<g>
				<g>
					<path class="st5" d="M392.69,164.39c0,0-49.06,29.8-46.76,41.26c2.29,11.46,2.29,11.46,2.29,11.46l-46.99,112.33
						c15.58,5.3,34.7,10.48,56.85,13.75c24.65,3.65,46.5,3.97,64.23,3.05c7-22.29,50.49-163.72,12.8-184.61
						c-3.09-1.71-6.89-2.71-11.63-2.58L392.69,164.39z"/>
				</g>
				<g>
					<path class="st10" d="M251.78,260.63l-36.8-15.04c-2.41-0.99-4.06-3.99-4.06-7.39v-94.37c0-5.18,3.7-8.89,7.38-7.39l36.8,15.04
						c2.41,0.99,4.06,3.99,4.06,7.39v94.37C259.16,258.42,255.45,262.13,251.78,260.63z"/>
				</g>
				<g>
					<path class="st3" d="M428.81,232.65c-19.6,25.16-39.52,42.33-55.76,53.95c-4.75,3.4-9.18,6.29-13.2,8.8
						c-26.55,16.55-37.12,16.17-41.25,15.74c-37.59-3.94-55.07-66.45-55.99-69.85l-25.35-1.7c0,0-16.01-18.95-12.77-25.24
						c3.28-6.29,11.31-8.84,11.31-8.84s-17.67-7.45-8.84-13.27c8.84-5.87,33.03,4.82,33.03,4.82s-2.55-14.82,11-7.91
						c13.51,6.87,20.14,46.54,20.14,46.54c12.19,25.2,33.3,23.08,54.33,11.31c31.99-17.83,63.75-57.84,63.75-57.84L428.81,232.65z"
						/>
				</g>
				<g>
					<path class="st5" d="M436.24,237.91c-7.07,7.6-15.64,15.85-25.9,24.07c-13.31,10.67-26.15,18.66-37.29,24.62
						c-7.76-11.04-19.33-27.55-27.59-39.59c19.03-12.46,31.1-25.38,38.75-35.23c9.29-11.96,14.53-22.56,27.06-26.17
						c7.46-2.15,17.65-1.86,24.52,3.71C446.49,197.98,448.31,218.78,436.24,237.91z"/>
				</g>
				<g>
					<path class="st3" d="M321.51,165.98c0,0-3.12-16.26-21.33-3.08c-18.21,13.18-25.89,18.83-22.57,24.43
						c3.32,5.6,23.61-6.55,23.61-6.55"/>
				</g>
				<g>
					<path class="st3" d="M301.2,205.7v0.05c-3.78,1.28-6.4,0.27-8.16-1.81c-4.53-5.28-4.11-17.11-4.11-17.11
						c2.26-1.01,4.51-2.03,6.77-3.04C297.54,191.09,299.37,198.4,301.2,205.7z"/>
				</g>
				<g>
					<path class="st3" d="M305.52,206.93c-1.71,0.48-3.14,0-4.32-1.17v-0.05c-0.8-0.75-1.49-1.81-2.03-3.04
						c-0.05-0.05-0.05-0.11-0.05-0.11c-3.09-6.82-3.41-18.76-3.41-18.76c3.06-4.04,6.12-8.08,9.17-12.11
						c2.59,5.05,5.19,10.1,7.78,15.15C312.66,186.83,314.64,204.21,305.52,206.93z"/>
				</g>
				<g>
					<path class="st3" d="M328.55,264.07l-21.32-4.1l8.69-4.64c-20.42-0.91-22.87-51.39-22.87-51.39c1.76,2.08,4.37,3.09,8.16,1.81
						c1.17,1.17,2.61,1.65,4.32,1.17c9.12-2.72,7.14-20.1,7.14-20.1l-12.37-2.24c0.16-1.28,0.64-2.67,1.39-4.16l19.67-14.34
						c1.87-0.21,3.62-0.11,5.17,0.27h0.21c6.93,1.6,11.57,8.21,11.51,15.3v1.12c-0.21,29.27-1.07,42.59,5.28,45.53
						c1.71,0.75,2.51,0.16,3.3,1.07C352.27,235.34,328.55,264.07,328.55,264.07z"/>
				</g>
				<g>
					<path class="st4" d="M325.72,208.05c-0.2,0-0.41-0.02-0.61-0.07c-2.25-0.53-7.82-2.36-10.84-7.87
						c-3.33-6.14-2.03-14.01,3.22-19.58c1.01-1.07,2.7-1.12,3.77-0.11c1.07,1.01,1.12,2.7,0.11,3.77
						c-3.62,3.84-4.62,9.34-2.43,13.38c1.98,3.62,5.83,4.86,7.38,5.23c1.44,0.34,2.32,1.77,1.98,3.2
						C328.03,207.22,326.93,208.05,325.72,208.05z"/>
				</g>
				<g>
					<path class="st4" d="M304.38,192.28c-1.22,0-2.33-0.22-3.34-0.66c-1.26-0.55-4.12-2.37-3.39-7.41
						c0.21-1.46,1.59-2.44,3.02-2.25c1.46,0.21,2.46,1.57,2.25,3.02c-0.11,0.74-0.08,1.61,0.23,1.75c0.7,0.3,2.9,0.69,8.2-2.23
						c3.51-1.92,6.36-4.21,6.39-4.23c1.12-0.9,2.82-0.8,3.75,0.29c0.93,1.1,0.88,2.69-0.18,3.65l-1.79-1.97l1.77,1.99
						c-0.34,0.29-3.46,2.79-7.37,4.93C310.19,191.25,307.03,192.28,304.38,192.28z"/>
				</g>
				<g>
					<path class="st4" d="M301.68,183.1c-0.39,0-0.78-0.08-1.16-0.26c-1.33-0.64-1.88-2.23-1.25-3.56
						c2.64-5.5,9.02-12.79,18.31-15.23c1.22-0.31,2.35-0.49,3.48-0.61c1.44-0.14,2.78,0.9,2.94,2.36c0.16,1.46-0.9,2.78-2.36,2.94
						c-0.9,0.1-1.79,0.23-2.72,0.47c-7.02,1.85-12.51,7.55-14.83,12.38C303.62,182.54,302.67,183.1,301.68,183.1z"/>
				</g>
				<g>
					<path class="st4" d="M345.46,249.67c-0.91,0-1.8-0.46-2.3-1.3c-0.75-1.27-0.34-2.9,0.93-3.65c0.3-0.18,29.92-18.02,45.95-45.26
						c0.74-1.28,2.38-1.69,3.65-0.94c1.26,0.74,1.69,2.38,0.94,3.65c-16.73,28.44-46.55,46.38-47.81,47.13
						C346.39,249.55,345.92,249.67,345.46,249.67z"/>
				</g>
			</g>
			<g>
				<g>
					<path class="st3" d="M423.49,159.06c-4.9,4.9-38.33,38.22-51.76,38.01c-0.75,0-2.24-0.11-2.93-1.07
						c-4.05-5.54,23.88-31.61,23.88-31.61c-0.48-2.29-1.01-4.53-1.49-6.82l-2.03-9.17c-1.76,1.76-4.42,4.21-8,6.77
						c-4.53,3.31-14.98,10.34-23.56,10.61c-16.05,0.43-26.81-31.88-26.81-31.88c-2.56-0.85-5.12-1.65-7.73-2.51
						c1.92-5.65,3.78-11.3,5.65-16.95c-6.4-16.31,0-49.1,0-49.1l2.77-10.45c3.2,5.17,13.91,21.11,35.29,29.27
						c19.35,7.36,36.25,4,42.43,2.51c2.08,10.66,4.21,21.27,6.29,31.93v0.05c1.49,7.57,2.99,15.19,4.53,22.76
						C421.15,147.27,422.32,153.19,423.49,159.06z"/>
				</g>
				<g>
					<path class="st3" d="M422.36,107.02c-3.43,10.43-11.1,17.27-17.13,15.29c-6.03-1.98-8.14-12.05-4.71-22.47
						c3.43-10.43,11.1-17.27,17.13-15.29C423.68,86.53,425.79,96.6,422.36,107.02z"/>
				</g>
				<g>
					<path class="st4" d="M420.03,141.41l-28.84,16.15l-2.03-9.17l26.33-29.75C416.99,126.22,418.48,133.84,420.03,141.41z"/>
				</g>
			</g>
		</g>
		<g>
			<path class="st6" d="M520.4,387.79l-4.79,9.57c-54.6,25.08-120.55,34.81-184.15,36.66c-61.36,1.81-120.47-3.74-165.08-9.96
				c3.36-12.93,17.06-43.72,72.97-55.03c7.33-1.47,15.36-2.62,24.2-3.36C358.83,357.85,520.4,387.79,520.4,387.79z"/>
		</g>
	</g>
	<g>
		<g>
			<path class="st1" d="M-1.05-114.99c-7.19,14.83-19.35,28.1-35.24,39.46c-78.52,56.35-247.64,67.31-349.09,0
				c-16.74-11.06-31.62-24.28-43.94-39.76c-32.88-41.27-52.33-104.41-47.71-164.04c1.91-24.48,4.78-55.45,27.25-82.35
				c45.34-54.19,129-41.93,133.22-41.22c58.57,9.5,59.57,44.44,144.28,98.13C-78.07-244.99-24.43-253.43-1.3-200.05
				C9.31-175.61,11.92-141.83-1.05-114.99z"/>
		</g>
		<g>
			<g>
				<g>
					<path class="st6" d="M-302.87-95.85l19.65-88.19c4.93-22.12,19.74-40.74,40.18-50.52l57.99-27.75l59.49,24.75
						c23.92,9.95,41.4,31.05,46.71,56.41l17.88,85.3H-302.87z"/>
				</g>
				<g>
					<path class="st15" d="M-221.8-124.05c0,0,15.51-20.33,22.97-19.04s21.24,25.62,21.24,25.62h61.5l1.73-15.57
						c0,0,39.34,7.13,53.4,37.18h-153.92L-221.8-124.05z"/>
				</g>
				<g>
					<path class="st2" d="M-114.36-131.14c-0.96,0-1.78-0.72-1.88-1.69l-5.34-52.5c-0.1-1.04,0.65-1.96,1.68-2.07
						c1.05-0.08,1.96,0.65,2.07,1.68l5.34,52.5c0.1,1.04-0.65,1.96-1.68,2.07C-114.23-131.15-114.3-131.14-114.36-131.14z"/>
				</g>
			</g>
			<g>
				<g>
					<path class="st15" d="M-212.61-271.17v40.86c0,0-2.92,25.29,13.3,23.02c16.21-2.27,33.41-47.05,33.41-47.05l-2.68-39.74
						L-212.61-271.17z"/>
				</g>
				<g>
					<polygon class="st4" points="-166.49,-263.34 -212.59,-233.78 -212.59,-271.18 -168.61,-294.11 					"/>
				</g>
				<g>
					
						<ellipse transform="matrix(0.361 -0.9326 0.9326 0.361 162.4637 -393.1398)" class="st3" cx="-205.66" cy="-315.13" rx="60.64" ry="42.39"/>
				</g>
				<g>
					<path class="st2" d="M-160.75-322.59c0,0-22.57-12.35-34.89-41.1c0,0-57.72,45.18-71.34,17.51c-13.62-27.67,20.1-49.51,24-30.7
						c0,0,31.09-50.37,82.24-16.86S-160.75-322.59-160.75-322.59z"/>
				</g>
				<g>
					<path class="st3" d="M-152.39-309.02c-3.29,9.16-10.29,15.03-15.64,13.11s-7.03-10.9-3.74-20.06
						c3.29-9.16,10.29-15.03,15.64-13.11C-150.77-327.17-149.1-318.18-152.39-309.02z"/>
				</g>
			</g>
		</g>
		<g>
			<g>
				<g>
					<rect x="-407.83" y="-170.65" class="st16" width="55.13" height="74.82"/>
				</g>
				<g>
					<path class="st16" d="M-428.75-132.99c0,6.51,5.31,11.79,11.83,11.79c3.68,0,6.95-1.67,9.1-4.29v15.87
						c-2.8,1.13-5.9,1.71-9.1,1.71c-13.86,0-25.11-11.21-25.11-25.07c0-13.86,11.24-25.11,25.11-25.11c3.2,0,6.3,0.58,9.1,1.71
						v15.87c-2.15-2.62-5.42-4.29-9.1-4.29C-423.44-144.81-428.75-139.54-428.75-132.99z"/>
				</g>
			</g>
			<g>
				<path class="st12" d="M-392.37-226.58c6.78-10.35,16.65-18.73,21.62-30.06c6.84-15.58,3.24-33.93,8.46-50.13
					c7.58-23.5,31.52-37.34,45.56-57.65c15.28-22.11,17.66-52.51,6.01-76.73c-5.32-11.06-13.68-21.06-24.85-26.15
					c-13.24-6.03-29.37-4.34-41.83,3.18c-12.46,7.51-21.27,20.36-25.19,34.37c-9.67,34.54,9.03,71.79,1.61,106.88
					c-4.41,20.87-17.71,39.02-22.2,59.87c-3.9,18.14-0.23,37.54,9.14,53.46c2.74,4.66,10.39,19.4,14.47,9.26
					c1.55-3.84,0.59-8.56,1.43-12.61C-397.13-217.74-395.09-222.43-392.37-226.58z"/>
			</g>
		</g>
		<g>
			<g>
				<rect x="-438.42" y="-95.85" class="st7" width="431.15" height="20.32"/>
			</g>
			<g>
				<path class="st11" d="M-36.29-75.52c-78.52,56.35-247.64,67.31-349.09,0H-36.29z"/>
			</g>
		</g>
		<g>
			<g>
				<path class="st10" d="M-206.51-105.61c1.32,5.37-2.13,9.76-7.66,9.76h-127.76c-5.53,0-11.13-4.39-12.45-9.76l-23.31-95.05
					c-1.32-5.37,2.13-9.76,7.66-9.76h127.76c5.53,0,11.13,4.39,12.45,9.76L-206.51-105.61z"/>
			</g>
			<g>
				<path class="st1" d="M-279.54-151.79c1.42,7.77-3.72,14.07-11.49,14.07c-7.77,0-15.22-6.3-16.65-14.07
					c-1.42-7.77,3.72-14.07,11.49-14.07C-288.41-165.86-280.96-159.56-279.54-151.79z"/>
			</g>
		</g>
	</g>
</g>
</svg>
