<?xml version="1.0" encoding="utf-8"?>
<!-- Generator: Adobe Illustrator 27.8.1, SVG Export Plug-In . SVG Version: 6.00 Build 0)  -->
<svg version="1.1" xmlns="http://www.w3.org/2000/svg" xmlns:xlink="http://www.w3.org/1999/xlink" x="0px" y="0px"
	 viewBox="0 0 500 500" style="enable-background:new 0 0 500 500;" xml:space="preserve">
<style type="text/css">
	.st0{opacity:0.1;fill:#FFFFFF;}
	.st1{fill:#DFEAF7;}
	.st2{fill:#002D53;}
	.st3{fill:#FFB3AE;}
	.st4{fill:#FF7A72;}
	.st5{fill:#FFB042;}
	.st6{fill:#3D71F2;}
	.st7{fill:#D18C7E;}
	.st8{fill:#40C1B0;}
	.st9{fill:#FF828A;}
	.st10{fill:#FFFFFF;}
	.st11{fill:#BC7F72;}
	.st12{fill:#F1F3F6;}
	.st13{fill:#004072;}
	.st14{fill:#004070;}
	.st15{fill:#FFB0B3;}
	.st16{fill:#6190E5;}
</style>
<g id="BACKGROUND">
	<rect x="773" y="-127" class="st0" width="500" height="500"/>
</g>
<g id="OBJECTS">
	<g>
		<g>
			<path class="st1" d="M792.74-166.47c0.36,13.46-13.1,26.46-28.09,35.28c-5.25,3.1-10.66,5.66-15.76,7.57
				c-16.4,6.13-30.2,5.66-40.39,5.34c-0.15-0.02-0.28-0.02-0.43-0.02c-0.32-0.02-0.66-0.02-0.98-0.04
				c-16.87-0.7-33.96-4.34-48.98-12.21c-0.4-0.21-0.79-0.42-1.19-0.64c-12.95-6.93-25.88-16.82-27.09-32.58
				c-0.6-7.76,1.85-15.65,6.51-21.86c5.04-6.7,12.4-10.46,19.05-15.31c4.68-3.42,6.76-8.36,8.95-13.5c1.53-3.57,3.19-7.1,5.1-10.49
				c1.06-1.85,2.15-3.64,3.36-5.4c8.44-12.29,22.4-21.29,37.2-23.41c15.42-2.19,30.14,5,40.24,16.57
				c6.1,6.96,10.29,15.57,12.1,24.65c1.49,7.42-0.04,16.7,5.74,22.52c6.7,6.74,16.33,4.74,21.78,13.14
				C792.57-172.68,792.68-168.32,792.74-166.47z"/>
		</g>
		<g>
			<g>
				<path class="st2" d="M738.44-193.38c13.7-11.74,17.77-33.17,8.4-46.96c-5.4-7.95-13.73-11.09-17.82-12.3
					c-1.7-2.48-6.01-7.98-13.31-9.98c-12.73-3.5-23.77,6.61-25.33,8.04c-14.62,13.38-20.13,46.05-0.16,62.01
					C703.2-182.2,724.34-181.3,738.44-193.38z"/>
			</g>
			<g>
				<g>
					<rect x="705.18" y="-212.86" class="st3" width="15.7" height="19.37"/>
				</g>
				<g>
					<path class="st4" d="M720.88-212.86v9.32c-8.29,0.6-13.02-0.47-15.7-2.11v-7.21H720.88z"/>
				</g>
				<g>
					<path class="st3" d="M736.39-224.49c-1.5,3.99-5.14,6.31-8.14,5.18c-3-1.13-4.21-5.27-2.71-9.26c1.5-3.99,5.14-6.31,8.14-5.18
						C736.68-232.62,737.89-228.48,736.39-224.49z"/>
				</g>
				<g>
					<path class="st3" d="M692.19-224.49c1.5,3.99,5.14,6.31,8.14,5.18c3-1.13,4.21-5.27,2.71-9.26c-1.5-3.99-5.14-6.31-8.14-5.18
						C691.91-232.62,690.69-228.48,692.19-224.49z"/>
				</g>
				<g>
					<path class="st3" d="M728.9-228.18c2.53,6.95-5.45,20.82-15.65,20.82c-8.64,0-15.65-9.32-15.65-20.82
						c0-12.53,12.57-22.35,15.65-20.82c1.24,0.61,0.22,2.7,1.33,6.27C717.25-234.21,726.75-234.11,728.9-228.18z"/>
				</g>
			</g>
			<g>
				<path class="st5" d="M757.11-139.06H667.5v-17.45c0-24.74,20.06-44.8,44.8-44.8l0,0c24.75,0,44.8,20.06,44.8,44.8V-139.06z"/>
			</g>
		</g>
		<g>
			<g>
				<g>
					<rect x="745.79" y="-166.91" class="st6" width="24.68" height="28.09"/>
				</g>
				<g>
					<path class="st6" d="M778.32-152.77c0,2.45-1.99,4.43-4.44,4.43c-1.38,0-2.61-0.63-3.42-1.61v5.96
						c1.05,0.42,2.21,0.64,3.42,0.64c5.21,0,9.43-4.21,9.43-9.41c0-5.21-4.22-9.43-9.43-9.43c-1.2,0-2.36,0.22-3.42,0.64v5.96
						c0.81-0.98,2.04-1.61,3.42-1.61C776.33-157.21,778.32-155.23,778.32-152.77z"/>
				</g>
			</g>
			<g>
				<rect x="638.06" y="-138.82" class="st7" width="150.4" height="7.63"/>
			</g>
			<g>
				<g>
					<path class="st8" d="M663.87-156.13c-0.52-13.33-0.33-30.13,4.09-31.08c0.15-0.03,0.68-0.14,1.21,0.14
						C672.74-185.23,668.62-170.22,663.87-156.13z"/>
				</g>
				<g>
					<path class="st8" d="M663.87-156.13c-6.52-11.43-9.66-13.5-11.29-12.99c-0.62,0.19-1.06,0.77-1.22,1.3
						C650.22-164.13,660.98-157.78,663.87-156.13z"/>
				</g>
				<g>
					<path class="st8" d="M663.87-156.13c0,0,6.08-17.5,10.28-16.46C678.36-171.54,663.87-156.13,663.87-156.13z"/>
				</g>
				<g>
					<polygon class="st9" points="654.33,-139.06 670.97,-139.06 672.44,-159.43 652.86,-159.43 					"/>
				</g>
			</g>
			<g>
				<g>
					<path class="st10" d="M746.52-142.59c0,2.08-1.7,3.78-3.78,3.78h-60.87c-2.08,0-3.78-1.7-3.78-3.78v-37.99
						c0-2.08,1.7-3.78,3.78-3.78h60.87c2.08,0,3.78,1.7,3.78,3.78V-142.59z"/>
				</g>
				<g>
					<circle class="st1" cx="712.31" cy="-160.18" r="5.28"/>
				</g>
			</g>
			<g>
				<path class="st11" d="M764.65-131.19c-5.25,3.1-10.66,5.66-15.76,7.57c-16.4,6.13-30.2,5.66-40.39,5.34
					c-0.15-0.02-0.28-0.02-0.43-0.02c-0.32-0.02-0.66-0.02-0.98-0.04c-16.87-0.7-33.96-4.34-48.98-12.21
					c-0.4-0.21-0.79-0.42-1.19-0.64H764.65z"/>
			</g>
		</g>
	</g>
	<g>
		<g>
			<g>
				<path class="st1" d="M457.42,336.3c-8.6,14.84-18.96,29.28-31.21,43.06l-0.04,0.04c-0.13,0.13-0.26,0.31-0.39,0.44
					c-24.32,27.3-59.66,42.19-96.22,41.7l-140.78-1.84c0,0-45.04-13.13-89.99-40.3c-0.04,0-0.04-0.04-0.09-0.04
					c-24.06-14.57-48.11-33.27-65.1-56.01C19.1,303.99,9.75,281.56,9.84,256.1c0,0-7.29-90.3,145.74-95.39
					c69.93-8.16,58.03-91.22,207.94-88.19c5.14,0.09,10.14,0.44,14.93,1.05c8.17,1.01,15.94,2.77,23.27,5.09
					c38.98,12.64,66.24,43.41,79.41,82.79c2.5,7.46,4.52,15.23,6.01,23.27C495.66,231.16,486.74,285.9,457.42,336.3z"/>
			</g>
			<g>
				<g>
					<path class="st12" d="M487.12,184.71H378.46V73.57c8.17,1.03,15.91,2.79,23.24,5.11c39.01,12.63,66.26,43.39,79.42,82.78
						C483.65,168.91,485.63,176.69,487.12,184.71z"/>
				</g>
				<g>
					<path class="st1" d="M481.13,161.46h-79.42V78.68C440.71,91.32,467.96,122.08,481.13,161.46z"/>
				</g>
			</g>
		</g>
		<g>
			<g>
				<path class="st2" d="M434.58,323.36h-64.73c0.09-14.33,0.18-28.65,0.27-42.98c-1.33-0.75-2.45-1.61-3.4-2.55
					c-12.74-12.61,0.7-43.55,2.27-47.07c2.83,4.15,5.66,8.3,8.48,12.46h17.57c2.33-4.16,4.66-8.33,6.98-12.49
					c1.87,3.96,3.67,8.43,5.21,13.38c4.46,14.28,5.1,27.17,4.64,36.8C417.54,281.12,421.33,282.88,434.58,323.36z"/>
			</g>
			<g>
				<path class="st10" d="M374.88,261.11c0,1.88-0.26,3.41-0.59,3.41c-0.32,0-0.59-1.53-0.59-3.41c0-1.88,0.26-3.41,0.59-3.41
					C374.62,257.7,374.88,259.23,374.88,261.11z"/>
			</g>
			<g>
				<path class="st10" d="M392.16,261.11c0,1.88-0.26,3.41-0.59,3.41s-0.59-1.53-0.59-3.41c0-1.88,0.26-3.41,0.59-3.41
					S392.16,259.23,392.16,261.11z"/>
			</g>
		</g>
		<g>
			<g>
				<g>
					<polygon class="st2" points="194.32,323.36 154.59,323.36 170.21,260.5 209.94,260.5 					"/>
				</g>
				<g>
					<g>
						<path class="st10" d="M289.37,287.88c0.44,4.17-2.63,7.59-6.83,7.59H77.52c-4.2,0-8-3.42-8.44-7.59L55.49,160.12
							c-0.44-4.17,2.63-7.59,6.83-7.59h205.03c4.2,0,8,3.42,8.44,7.59L289.37,287.88z"/>
					</g>
					<g>
						<path class="st2" d="M289.37,287.88c0.44,4.17-2.63,7.59-6.83,7.59H77.52c-4.2,0-8-3.42-8.44-7.59L55.49,160.12
							c-0.44-4.17,2.63-7.59,6.83-7.59h205.03c4.2,0,8,3.42,8.44,7.59L289.37,287.88z"/>
					</g>
				</g>
				<g>
					<g>
						<path class="st13" d="M86.09,285.94c-4.2,0-8-3.42-8.44-7.59l-11.56-108.7c-0.44-4.17,2.63-7.59,6.83-7.59h185.86
							c4.2,0,8,3.42,8.44,7.59l11.56,108.7c0.44,4.17-2.63,7.59-6.83,7.59H86.09z"/>
					</g>
				</g>
				<g>
					<g>
						<polygon class="st9" points="132.37,196.06 88.08,196.06 87,189.15 131.29,189.15 						"/>
					</g>
					<g>
						<polygon class="st10" points="188.29,196.06 144,196.06 142.92,189.15 187.21,189.15 						"/>
					</g>
					<g>
						<polygon class="st10" points="135.67,216.08 91.38,216.08 90.3,209.17 134.59,209.17 						"/>
					</g>
					<g>
						<polygon class="st10" points="168.9,233.14 124.61,233.14 123.53,226.23 167.82,226.23 						"/>
					</g>
					<g>
						<polygon class="st10" points="195.22,252.6 150.93,252.6 149.85,245.69 194.14,245.69 						"/>
					</g>
					<g>
						<polygon class="st9" points="222.17,252.6 200.03,252.6 198.95,245.69 221.09,245.69 						"/>
					</g>
					<g>
						<polygon class="st9" points="217.91,233.14 173.62,233.14 172.54,226.23 216.83,226.23 						"/>
					</g>
				</g>
			</g>
			<g>
				<g>
					<path class="st11" d="M426.21,379.36l-0.04,0.04c-0.13,0.13-0.26,0.31-0.39,0.44c-24.32,27.3-59.66,42.19-96.22,41.7
						l-140.78-1.84c0,0-45.04-13.13-89.99-40.3c-0.04,0-0.04-0.04-0.09-0.04H426.21z"/>
				</g>
				<g>
					<path class="st7" d="M457.43,336.3c-8.61,14.84-19,29.33-31.27,43.09H98.79c-24.12-14.59-48.21-33.24-65.21-56.02h414.59
						L457.43,336.3z"/>
				</g>
			</g>
		</g>
		<g>
			<g>
				<g>
					<path class="st3" d="M319.56,233.11c-9.55,28.77-33.79,46.61-54.14,39.86c-20.35-6.76-29.1-35.56-19.54-64.33
						c9.55-28.77,33.79-46.62,54.14-39.86C320.37,175.54,329.12,204.34,319.56,233.11z"/>
				</g>
				<g>
					<rect x="280.36" y="239.98" class="st3" width="41.15" height="49.08"/>
				</g>
				<g>
					<path class="st2" d="M242.79,221.56c0,0-33.97-19.34-6.98-52.94c6.98-10.19,6.98,10.57,6.98,10.57s23.18-67.2,62.47-24.35
						c0,0,37.13,6.29,45.39,31.34c2.67,8.1,1.21,15.02-0.24,22.46c-0.51,2.61-9.97,47.72-41.73,53.28
						c-4.44,0.78-14.81,1.74-28.32-5.38C267.83,244.88,255.31,233.22,242.79,221.56z"/>
				</g>
				<g>
					<path class="st3" d="M276.34,238.45c0.81,8.98-1.56,16.53-5.29,16.86c-3.73,0.34-7.41-6.67-8.22-15.64
						c-0.81-8.98,1.56-16.53,5.29-16.86C271.86,222.47,275.54,229.48,276.34,238.45z"/>
				</g>
			</g>
			<g>
				<g>
					<path class="st6" d="M408.53,413.66c0,0-8.07,4.61-29.87,8.52c-24.94,4.48-67.84,8.04-137.15,2.73
						c-16.11-1.21-33.65-2.92-52.72-5.21c0,0,5.47-25.14,18.53-54.94c17.83-40.74,49.89-90.21,101.56-96.09
						c51.03-5.82,76.26,42.17,88.53,84.49C406.66,385.03,408.53,413.66,408.53,413.66z"/>
				</g>
				<g>
					<path class="st3" d="M408.53,413.66c0,0-8.07,4.61-29.87,8.52l-6.64-59.77l25.39-9.25
						C406.66,385.03,408.53,413.66,408.53,413.66z"/>
				</g>
				<g>
					<path class="st3" d="M249.67,379.38l-2.73,15.35c-3.11,17.25-19,29.2-36.45,27.39c-6.99-0.73-14.24-1.53-21.7-2.42
						c-24.53-2.73-71.75-71.85-71.75-71.85l-12.9,2.51c-4.19,14.87-7.34,18.65-9.63,18.53c-4.83-0.25-7.28-18.34-5.66-29.08
						c0.32-2.03,0.89-4.61,2.92-6.32c1.75-1.46,4.1-1.91,6.2-1.94c2.7,0.25,4.04,0.41,4.61,0.44c-0.7-0.13-2.51-0.48-4.61-0.44
						c-0.32-0.03-0.67-0.06-1.05-0.1c1.43-12.58,9.34-23.04,20.24-26.69c10.11-3.4,19.03,0.29,21.54,1.4c0,0,3.11-1.97,10.61-1.27
						c7.5,0.73,11.47,18.97,11.47,18.97l46.52,40.9C215.99,370.93,231.05,379.19,249.67,379.38z"/>
				</g>
				<g>
					<path class="st4" d="M102.57,334.2c-0.13,0-0.27-0.01-0.4-0.03c-0.75-0.14-2.39-0.42-4.18-0.41c-1.16,0.15-2.21-0.95-2.23-2.16
						c-0.02-1.21,0.95-2.21,2.16-2.22c2.23,0,4.15,0.32,4.96,0.47c1.19,0.22,2.01,1.37,1.8,2.56
						C104.5,333.45,103.61,334.2,102.57,334.2z"/>
				</g>
				<g>
					<path class="st4" d="M195.79,388.42c-0.35,0-0.71-0.09-1.04-0.26c-1.07-0.57-1.47-1.9-0.9-2.97l11.52-21.46
						c0.57-1.07,1.91-1.47,2.97-0.9c1.07,0.57,1.47,1.9,0.9,2.97l-11.52,21.46C197.33,388,196.57,388.42,195.79,388.42z"/>
				</g>
				<g>
					<path class="st2" d="M372.02,364.05c-0.76,0-1.45-0.53-1.61-1.31l-8.29-39.38c-0.18-0.89,0.38-1.76,1.27-1.95
						c0.92-0.16,1.76,0.39,1.95,1.27l8.29,39.38c0.18,0.89-0.38,1.76-1.27,1.95C372.25,364.04,372.13,364.05,372.02,364.05z"/>
				</g>
				<g>
					<path class="st2" d="M249.67,381.03c-0.27,0-0.53-0.06-0.78-0.2c-0.8-0.43-1.1-1.43-0.67-2.23l15.1-28.01
						c0.43-0.81,1.44-1.09,2.23-0.67c0.8,0.43,1.1,1.43,0.67,2.23l-15.1,28.01C250.82,380.72,250.25,381.03,249.67,381.03z"/>
				</g>
			</g>
		</g>
	</g>
	<g>
		<g>
			<path class="st1" d="M981.63,541.61c-6.97,12.39-17.82,21.07-30.69,27.02c-0.06,0.02-0.12,0.06-0.18,0.09
				c-17.19,7.9-37.95,10.96-57.97,11.54c-19.32,0.57-37.93-1.18-51.97-3.13c-14.58-2.03-24.24-4.28-24.6-4.39
				c-1.07-0.33-2.1-0.73-2.1-0.73c-0.77-0.28-1.53-0.61-2.27-0.95c-0.02,0-0.04-0.01-0.06-0.02l-0.22-0.11
				c-5.89-2.73-10.8-6.94-14.37-12.06c-4.31-6.22-6.62-13.78-6.22-21.66c0.43-8.24,2.32-17.34,7.06-26.17
				c9.91-18.5,32.49-36.22,55.42-37.82c8.72-0.61,20.94,0.45,33.31-7.24c2.84-1.77,3.78-2.39,6.42-4.07
				c3.78-2.4,23.17-14.69,46.3-12.1c5.67,0.64,24.6,3.62,38.13,19.47C996.08,490.92,992.28,522.68,981.63,541.61z"/>
		</g>
		<g>
			<g>
				<path class="st6" d="M956.37,557.71c-2,4.46-3.92,8.19-5.43,10.92c-0.06,0.02-0.12,0.06-0.18,0.09
					c-17.19,7.9-37.95,10.96-57.97,11.54c-6.57,0.05-12.65-0.24-18.11-0.73c-8.89-5.5-12.89-13.9-10.89-19.73
					c0.53-1.56,1.51-2.94,2.94-4.02c13.29-10.11,34.69-10.38,39.14-21.93c2.96-7.7,10.41-29.18,15.04-42.63
					c1.43-4.15,11.95-15.17,24.5-14.59c10.44,0.47,17.48,9.18,18.17,10.06C979.22,506.6,962.2,544.66,956.37,557.71z"/>
			</g>
			<g>
				<path class="st2" d="M936.84,563.81c-0.03,0-0.05,0-0.08,0l-18.88-2.5c-0.35-0.05-0.59-0.36-0.54-0.71
					c0.05-0.34,0.34-0.58,0.71-0.54l18.88,2.5c0.35,0.05,0.59,0.36,0.54,0.71C937.42,563.58,937.15,563.81,936.84,563.81z"/>
			</g>
		</g>
		<g>
			<g>
				<path class="st8" d="M835.72,524.06c-0.65-16.65-0.41-37.64,5.11-38.83c0.19-0.04,0.85-0.17,1.51,0.17
					C846.8,487.7,841.64,506.45,835.72,524.06z"/>
			</g>
			<g>
				<path class="st8" d="M835.72,524.06c-8.14-14.27-12.07-16.87-14.11-16.23c-0.77,0.24-1.33,0.96-1.53,1.62
					C818.66,514.06,832.1,521.99,835.72,524.06z"/>
			</g>
			<g>
				<path class="st8" d="M835.72,524.06c0,0,7.6-21.86,12.85-20.56C853.81,504.8,835.72,524.06,835.72,524.06z"/>
			</g>
			<g>
				<polygon class="st9" points="845.69,547.55 824.91,547.55 823.07,522.1 847.53,522.1 				"/>
			</g>
		</g>
		<g>
			<g>
				<path class="st2" d="M892.79,474.15c0,0-8.88-1.73-6.93-10.72c1.95-8.99,7.79-8.88,7.79-8.88s9.64-14.83,27.61-5.85
					c17.97,8.99,4.76,21.76,14.83,30.31c10.07,8.55,24.95,47.92-7.39,44.2L892.79,474.15z"/>
			</g>
			<g>
				<path class="st14" d="M917.31,564.01c-0.9,1.51-4.11,6.78-9.59,10.1c-16.21,9.83-40.87-4.31-48.94-8.94
					c-7.39-4.24-12.89-8.75-16.45-11.99l-26.13,19.56c-1.49-0.46-2.95-1.02-4.37-1.68c-0.02,0-0.04-0.01-0.06-0.02l-0.22-0.11
					c-5.89-2.73-10.8-6.94-14.37-12.06c7.7-8.63,26.8-28.83,37.47-29.39c13.57-0.72,48.61,17.86,48.61,17.86l38.49-1.3
					C921.88,549.16,921.77,556.5,917.31,564.01z"/>
			</g>
			<g>
				<g>
					<path class="st5" d="M912.06,495.37c0,0-15.44,9.38-14.72,12.99c0.72,3.61,0.72,3.61,0.72,3.61l-14.8,35.36
						c4.91,1.67,10.93,3.3,17.9,4.33c7.76,1.15,14.64,1.25,20.22,0.96c2.2-7.02,15.89-51.54,4.03-58.12
						c-0.97-0.54-2.17-0.85-3.66-0.81L912.06,495.37z"/>
				</g>
				<g>
					<path class="st10" d="M867.69,525.67l-11.59-4.74c-0.76-0.31-1.28-1.25-1.28-2.33V488.9c0-1.63,1.17-2.8,2.32-2.33l11.59,4.74
						c0.76,0.31,1.28,1.25,1.28,2.33v29.71C870.02,524.98,868.85,526.14,867.69,525.67z"/>
				</g>
				<g>
					<path class="st3" d="M923.43,516.86c-6.17,7.92-12.44,13.33-17.56,16.98c-1.49,1.07-2.89,1.98-4.15,2.77
						c-8.36,5.21-11.69,5.09-12.99,4.96c-11.83-1.24-17.34-20.92-17.63-21.99l-7.98-0.53c0,0-5.04-5.97-4.02-7.95
						c1.03-1.98,3.56-2.78,3.56-2.78s-5.56-2.34-2.78-4.18c2.78-1.85,10.4,1.52,10.4,1.52s-0.8-4.67,3.46-2.49
						c4.25,2.16,6.34,14.65,6.34,14.65c3.84,7.93,10.48,7.27,17.11,3.56c10.07-5.61,20.07-18.21,20.07-18.21L923.43,516.86z"/>
				</g>
				<g>
					<path class="st5" d="M925.77,518.52c-2.22,2.39-4.93,4.99-8.16,7.58c-4.19,3.36-8.23,5.87-11.74,7.75
						c-2.44-3.47-6.09-8.67-8.69-12.46c5.99-3.92,9.79-7.99,12.2-11.09c2.93-3.77,4.57-7.1,8.52-8.24c2.35-0.68,5.56-0.59,7.72,1.17
						C928.99,505.95,929.57,512.5,925.77,518.52z"/>
				</g>
				<g>
					<path class="st3" d="M889.65,495.87c0,0-0.98-5.12-6.72-0.97c-5.73,4.15-8.15,5.93-7.11,7.69c1.05,1.76,7.43-2.06,7.43-2.06"/>
				</g>
				<g>
					<path class="st3" d="M883.25,508.38v0.02c-1.19,0.4-2.01,0.08-2.57-0.57c-1.43-1.66-1.29-5.39-1.29-5.39
						c0.71-0.32,1.42-0.64,2.13-0.96C882.1,503.78,882.68,506.08,883.25,508.38z"/>
				</g>
				<g>
					<path class="st3" d="M884.61,508.76c-0.54,0.15-0.99,0-1.36-0.37v-0.02c-0.25-0.24-0.47-0.57-0.64-0.96
						c-0.02-0.02-0.02-0.03-0.02-0.03c-0.97-2.15-1.07-5.91-1.07-5.91c0.96-1.27,1.93-2.54,2.89-3.81c0.82,1.59,1.63,3.18,2.45,4.77
						C886.86,502.44,887.48,507.91,884.61,508.76z"/>
				</g>
				<g>
					<path class="st3" d="M891.86,526.75l-6.71-1.29l2.74-1.46c-6.43-0.29-7.2-16.18-7.2-16.18c0.55,0.65,1.38,0.97,2.57,0.57
						c0.37,0.37,0.82,0.52,1.36,0.37c2.87-0.86,2.25-6.33,2.25-6.33l-3.89-0.7c0.05-0.4,0.2-0.84,0.44-1.31l6.19-4.51
						c0.59-0.07,1.14-0.03,1.63,0.08h0.07c2.18,0.5,3.64,2.58,3.63,4.82v0.35c-0.07,9.21-0.34,13.41,1.66,14.33
						c0.54,0.23,0.79,0.05,1.04,0.34C899.33,517.71,891.86,526.75,891.86,526.75z"/>
				</g>
				<g>
					<path class="st4" d="M890.97,509.11c-0.06,0-0.13-0.01-0.19-0.02c-0.71-0.17-2.46-0.74-3.41-2.48
						c-1.05-1.93-0.64-4.41,1.01-6.17c0.32-0.34,0.85-0.35,1.19-0.04c0.34,0.32,0.35,0.85,0.04,1.19c-1.14,1.21-1.45,2.94-0.76,4.21
						c0.62,1.14,1.83,1.53,2.32,1.65c0.45,0.11,0.73,0.56,0.62,1.01C891.7,508.85,891.35,509.11,890.97,509.11z"/>
				</g>
				<g>
					<path class="st4" d="M884.25,504.15c-0.39,0-0.73-0.07-1.05-0.21c-0.4-0.17-1.3-0.75-1.07-2.33c0.07-0.46,0.5-0.77,0.95-0.71
						c0.46,0.07,0.78,0.49,0.71,0.95c-0.03,0.23-0.03,0.51,0.07,0.55c0.22,0.09,0.91,0.22,2.58-0.7c1.1-0.6,2-1.32,2.01-1.33
						c0.35-0.28,0.89-0.25,1.18,0.09c0.29,0.35,0.28,0.85-0.06,1.15l-0.56-0.62l0.56,0.63c-0.11,0.09-1.09,0.88-2.32,1.55
						C886.08,503.83,885.09,504.15,884.25,504.15z"/>
				</g>
				<g>
					<path class="st4" d="M883.4,501.26c-0.12,0-0.25-0.03-0.36-0.08c-0.42-0.2-0.59-0.7-0.39-1.12c0.83-1.73,2.84-4.03,5.76-4.79
						c0.38-0.1,0.74-0.15,1.1-0.19c0.45-0.04,0.88,0.28,0.92,0.74c0.05,0.46-0.28,0.88-0.74,0.92c-0.28,0.03-0.56,0.07-0.86,0.15
						c-2.21,0.58-3.94,2.38-4.67,3.9C884.01,501.09,883.71,501.26,883.4,501.26z"/>
				</g>
				<g>
					<path class="st4" d="M897.18,522.22c-0.29,0-0.57-0.15-0.72-0.41c-0.24-0.4-0.11-0.91,0.29-1.15
						c0.09-0.06,9.42-5.67,14.47-14.25c0.23-0.4,0.75-0.53,1.15-0.3c0.4,0.23,0.53,0.75,0.3,1.15c-5.27,8.95-14.66,14.6-15.05,14.84
						C897.48,522.18,897.33,522.22,897.18,522.22z"/>
				</g>
			</g>
			<g>
				<g>
					<path class="st3" d="M921.75,493.69c-1.54,1.54-12.07,12.03-16.3,11.97c-0.23,0-0.7-0.03-0.92-0.34
						c-1.28-1.75,7.52-9.95,7.52-9.95c-0.15-0.72-0.32-1.43-0.47-2.15l-0.64-2.89c-0.55,0.55-1.39,1.33-2.52,2.13
						c-1.43,1.04-4.72,3.26-7.42,3.34c-5.05,0.13-8.44-10.04-8.44-10.04c-0.81-0.27-1.61-0.52-2.43-0.79
						c0.6-1.78,1.19-3.56,1.78-5.34c-2.01-5.14,0-15.46,0-15.46l0.87-3.29c1.01,1.63,4.38,6.65,11.11,9.21
						c6.09,2.32,11.41,1.26,13.36,0.79c0.65,3.36,1.33,6.7,1.98,10.05v0.02c0.47,2.38,0.94,4.78,1.43,7.17
						C921.01,489.98,921.38,491.85,921.75,493.69z"/>
				</g>
				<g>
					<path class="st3" d="M921.4,477.31c-1.08,3.28-3.49,5.44-5.39,4.81c-1.9-0.62-2.56-3.79-1.48-7.08
						c1.08-3.28,3.49-5.44,5.39-4.81C921.81,470.86,922.48,474.03,921.4,477.31z"/>
				</g>
				<g>
					<path class="st4" d="M920.66,488.14l-9.08,5.09l-0.64-2.89l8.29-9.36C919.71,483.35,920.17,485.75,920.66,488.14z"/>
				</g>
			</g>
		</g>
		<g>
			<path class="st6" d="M952.26,565.7l-1.51,3.01c-17.19,7.9-37.95,10.96-57.97,11.54c-19.32,0.57-37.93-1.18-51.97-3.13
				c1.06-4.07,5.37-13.76,22.97-17.32c2.31-0.46,4.84-0.83,7.62-1.06C901.4,556.28,952.26,565.7,952.26,565.7z"/>
		</g>
	</g>
	<g>
		<g>
			<path class="st1" d="M-1.05-83.99c-7.19,14.83-19.35,28.1-35.24,39.46c-78.52,56.35-247.64,67.31-349.09,0
				C-402.12-55.58-417-68.8-429.31-84.29c-32.88-41.27-52.33-104.41-47.71-164.04c1.91-24.48,4.78-55.45,27.25-82.35
				c45.34-54.19,129-41.93,133.22-41.22c58.57,9.5,59.57,44.44,144.28,98.13C-78.07-213.99-24.43-222.43-1.3-169.05
				C9.31-144.61,11.92-110.83-1.05-83.99z"/>
		</g>
		<g>
			<g>
				<g>
					<path class="st6" d="M-302.87-64.85l19.65-88.19c4.93-22.12,19.74-40.74,40.18-50.52l57.99-27.75l59.49,24.75
						c23.92,9.95,41.4,31.05,46.71,56.41l17.88,85.3H-302.87z"/>
				</g>
				<g>
					<path class="st15" d="M-221.8-93.05c0,0,15.51-20.33,22.97-19.04c7.46,1.3,21.24,25.62,21.24,25.62h61.5l1.73-15.57
						c0,0,39.34,7.13,53.4,37.18h-153.92L-221.8-93.05z"/>
				</g>
				<g>
					<path class="st2" d="M-114.36-100.14c-0.96,0-1.78-0.72-1.88-1.69l-5.34-52.5c-0.1-1.04,0.65-1.96,1.68-2.07
						c1.05-0.08,1.96,0.65,2.07,1.68l5.34,52.5c0.1,1.04-0.65,1.96-1.68,2.07C-114.23-100.15-114.3-100.14-114.36-100.14z"/>
				</g>
			</g>
			<g>
				<g>
					<path class="st15" d="M-212.61-240.17v40.86c0,0-2.92,25.29,13.3,23.02c16.21-2.27,33.41-47.05,33.41-47.05l-2.68-39.74
						L-212.61-240.17z"/>
				</g>
				<g>
					<polygon class="st4" points="-166.49,-232.34 -212.59,-202.78 -212.59,-240.18 -168.61,-263.11 					"/>
				</g>
				<g>
					
						<ellipse transform="matrix(0.361 -0.9326 0.9326 0.361 133.5546 -373.3318)" class="st3" cx="-205.66" cy="-284.13" rx="60.64" ry="42.39"/>
				</g>
				<g>
					<path class="st2" d="M-160.75-291.59c0,0-22.57-12.35-34.89-41.1c0,0-57.72,45.18-71.34,17.51c-13.62-27.67,20.1-49.51,24-30.7
						c0,0,31.09-50.37,82.24-16.86S-160.75-291.59-160.75-291.59z"/>
				</g>
				<g>
					<path class="st3" d="M-152.39-278.02c-3.29,9.16-10.29,15.03-15.64,13.11s-7.03-10.9-3.74-20.06
						c3.29-9.16,10.29-15.03,15.64-13.11C-150.77-296.17-149.1-287.18-152.39-278.02z"/>
				</g>
			</g>
		</g>
		<g>
			<g>
				<g>
					<rect x="-407.83" y="-139.65" class="st16" width="55.13" height="74.82"/>
				</g>
				<g>
					<path class="st16" d="M-428.75-101.99c0,6.51,5.31,11.79,11.83,11.79c3.68,0,6.95-1.67,9.1-4.29v15.87
						c-2.8,1.13-5.9,1.71-9.1,1.71c-13.86,0-25.11-11.21-25.11-25.07c0-13.86,11.24-25.11,25.11-25.11c3.2,0,6.3,0.58,9.1,1.71
						v15.87c-2.15-2.62-5.42-4.29-9.1-4.29C-423.44-113.81-428.75-108.54-428.75-101.99z"/>
				</g>
			</g>
			<g>
				<path class="st12" d="M-392.37-195.58c6.78-10.35,16.65-18.73,21.62-30.06c6.84-15.58,3.24-33.93,8.46-50.13
					c7.58-23.5,31.52-37.34,45.56-57.65c15.28-22.11,17.66-52.51,6.01-76.73c-5.32-11.06-13.68-21.06-24.85-26.15
					c-13.24-6.03-29.37-4.34-41.83,3.18c-12.46,7.51-21.27,20.36-25.19,34.37c-9.67,34.54,9.03,71.79,1.61,106.88
					c-4.41,20.87-17.71,39.02-22.2,59.87c-3.9,18.14-0.23,37.54,9.14,53.46c2.74,4.66,10.39,19.4,14.47,9.26
					c1.55-3.84,0.59-8.56,1.43-12.61C-397.13-186.74-395.09-191.43-392.37-195.58z"/>
			</g>
		</g>
		<g>
			<g>
				<rect x="-438.42" y="-64.85" class="st7" width="431.15" height="20.32"/>
			</g>
			<g>
				<path class="st11" d="M-36.29-44.52c-78.52,56.35-247.64,67.31-349.09,0H-36.29z"/>
			</g>
		</g>
		<g>
			<g>
				<path class="st10" d="M-206.51-74.61c1.32,5.37-2.13,9.76-7.66,9.76h-127.76c-5.53,0-11.13-4.39-12.45-9.76l-23.31-95.05
					c-1.32-5.37,2.13-9.76,7.66-9.76h127.76c5.53,0,11.13,4.39,12.45,9.76L-206.51-74.61z"/>
			</g>
			<g>
				<path class="st1" d="M-279.54-120.79c1.42,7.77-3.72,14.07-11.49,14.07c-7.77,0-15.22-6.3-16.65-14.07
					c-1.42-7.77,3.72-14.07,11.49-14.07C-288.41-134.86-280.96-128.56-279.54-120.79z"/>
			</g>
		</g>
	</g>
</g>
</svg>
